<svg width="181" height="246" viewBox="0 0 181 246" fill="none" xmlns="http://www.w3.org/2000/svg">
<mask id="mask0_3317_256" style="mask-type:alpha" maskUnits="userSpaceOnUse" x="0" y="0" width="181" height="246">
<rect width="181" height="246" fill="#D9D9D9"/>
</mask>
<g mask="url(#mask0_3317_256)">
<path d="M30.5493 239.936L35.7093 225.936H38.0293L43.1493 239.936H40.9093L39.7093 236.516H33.9893L32.7893 239.936H30.5493ZM34.5893 234.836H39.1093L36.8493 228.456L34.5893 234.836ZM45.0216 239.936V230.016H46.9016L47.0816 231.416C47.4016 230.909 47.8216 230.509 48.3416 230.216C48.875 229.922 49.4883 229.776 50.1816 229.776C51.755 229.776 52.8483 230.396 53.4616 231.636C53.8216 231.062 54.3016 230.609 54.9016 230.276C55.515 229.942 56.175 229.776 56.8816 229.776C58.1216 229.776 59.095 230.149 59.8016 230.896C60.5083 231.642 60.8616 232.756 60.8616 234.236V239.936H58.7416V234.456C58.7416 232.536 58.0083 231.576 56.5416 231.576C55.795 231.576 55.1816 231.856 54.7016 232.416C54.235 232.976 54.0016 233.776 54.0016 234.816V239.936H51.8816V234.456C51.8816 232.536 51.1416 231.576 49.6616 231.576C48.9283 231.576 48.3216 231.856 47.8416 232.416C47.375 232.976 47.1416 233.776 47.1416 234.816V239.936H45.0216ZM68.922 240.176C68.1486 240.176 67.462 240.022 66.862 239.716C66.2753 239.409 65.8086 238.976 65.462 238.416L65.242 239.936H63.342V225.536H65.462V231.556C65.782 231.089 66.222 230.676 66.782 230.316C67.342 229.956 68.062 229.776 68.942 229.776C69.902 229.776 70.7486 230.002 71.482 230.456C72.2153 230.909 72.7886 231.529 73.202 232.316C73.6286 233.102 73.842 233.996 73.842 234.996C73.842 235.996 73.6286 236.889 73.202 237.676C72.7886 238.449 72.2153 239.062 71.482 239.516C70.7486 239.956 69.8953 240.176 68.922 240.176ZM68.562 238.336C69.4686 238.336 70.2153 238.029 70.802 237.416C71.3886 236.789 71.682 235.976 71.682 234.976C71.682 234.322 71.5486 233.742 71.282 233.236C71.0153 232.729 70.6486 232.336 70.182 232.056C69.7153 231.762 69.1753 231.616 68.562 231.616C67.6553 231.616 66.9086 231.929 66.322 232.556C65.7486 233.182 65.462 233.989 65.462 234.976C65.462 235.976 65.7486 236.789 66.322 237.416C66.9086 238.029 67.6553 238.336 68.562 238.336ZM79.4949 240.176C78.6549 240.176 77.9616 240.036 77.4149 239.756C76.8683 239.476 76.4616 239.109 76.1949 238.656C75.9283 238.189 75.7949 237.682 75.7949 237.136C75.7949 236.176 76.1683 235.416 76.9149 234.856C77.6616 234.296 78.7283 234.016 80.1149 234.016H82.7149V233.836C82.7149 233.062 82.5016 232.482 82.0749 232.096C81.6616 231.709 81.1216 231.516 80.4549 231.516C79.8683 231.516 79.3549 231.662 78.9149 231.956C78.4883 232.236 78.2283 232.656 78.1349 233.216H76.0149C76.0816 232.496 76.3216 231.882 76.7349 231.376C77.1616 230.856 77.6949 230.462 78.3349 230.196C78.9883 229.916 79.7016 229.776 80.4749 229.776C81.8616 229.776 82.9349 230.142 83.6949 230.876C84.4549 231.596 84.8349 232.582 84.8349 233.836V239.936H82.9949L82.8149 238.236C82.5349 238.782 82.1283 239.242 81.5949 239.616C81.0616 239.989 80.3616 240.176 79.4949 240.176ZM79.9149 238.456C80.4883 238.456 80.9683 238.322 81.3549 238.056C81.7549 237.776 82.0616 237.409 82.2749 236.956C82.5016 236.502 82.6416 236.002 82.6949 235.456H80.3349C79.4949 235.456 78.8949 235.602 78.5349 235.896C78.1883 236.189 78.0149 236.556 78.0149 236.996C78.0149 237.449 78.1816 237.809 78.5149 238.076C78.8616 238.329 79.3283 238.456 79.9149 238.456ZM91.2668 240.176C90.0135 240.176 88.9801 239.869 88.1668 239.256C87.3535 238.642 86.8868 237.829 86.7668 236.816H88.9068C89.0135 237.269 89.2668 237.662 89.6668 237.996C90.0668 238.316 90.5935 238.476 91.2468 238.476C91.8868 238.476 92.3535 238.342 92.6468 238.076C92.9401 237.809 93.0868 237.502 93.0868 237.156C93.0868 236.649 92.8801 236.309 92.4668 236.136C92.0668 235.949 91.5068 235.782 90.7868 235.636C90.2268 235.516 89.6668 235.356 89.1068 235.156C88.5601 234.956 88.1001 234.676 87.7268 234.316C87.3668 233.942 87.1868 233.442 87.1868 232.816C87.1868 231.949 87.5201 231.229 88.1868 230.656C88.8535 230.069 89.7868 229.776 90.9868 229.776C92.0935 229.776 92.9868 230.042 93.6668 230.576C94.3601 231.109 94.7668 231.862 94.8868 232.836H92.8468C92.7801 232.409 92.5801 232.076 92.2468 231.836C91.9268 231.596 91.4935 231.476 90.9468 231.476C90.4135 231.476 90.0001 231.589 89.7068 231.816C89.4135 232.029 89.2668 232.309 89.2668 232.656C89.2668 233.002 89.4668 233.276 89.8668 233.476C90.2801 233.676 90.8201 233.856 91.4868 234.016C92.1535 234.162 92.7668 234.336 93.3268 234.536C93.9001 234.722 94.3601 235.002 94.7068 235.376C95.0535 235.749 95.2268 236.296 95.2268 237.016C95.2401 237.922 94.8868 238.676 94.1668 239.276C93.4601 239.876 92.4935 240.176 91.2668 240.176ZM101.501 240.176C100.248 240.176 99.2145 239.869 98.4012 239.256C97.5878 238.642 97.1212 237.829 97.0012 236.816H99.1412C99.2478 237.269 99.5012 237.662 99.9012 237.996C100.301 238.316 100.828 238.476 101.481 238.476C102.121 238.476 102.588 238.342 102.881 238.076C103.175 237.809 103.321 237.502 103.321 237.156C103.321 236.649 103.115 236.309 102.701 236.136C102.301 235.949 101.741 235.782 101.021 235.636C100.461 235.516 99.9012 235.356 99.3412 235.156C98.7945 234.956 98.3345 234.676 97.9612 234.316C97.6012 233.942 97.4212 233.442 97.4212 232.816C97.4212 231.949 97.7545 231.229 98.4212 230.656C99.0878 230.069 100.021 229.776 101.221 229.776C102.328 229.776 103.221 230.042 103.901 230.576C104.595 231.109 105.001 231.862 105.121 232.836H103.081C103.015 232.409 102.815 232.076 102.481 231.836C102.161 231.596 101.728 231.476 101.181 231.476C100.648 231.476 100.235 231.589 99.9412 231.816C99.6478 232.029 99.5012 232.309 99.5012 232.656C99.5012 233.002 99.7012 233.276 100.101 233.476C100.515 233.676 101.055 233.856 101.721 234.016C102.388 234.162 103.001 234.336 103.561 234.536C104.135 234.722 104.595 235.002 104.941 235.376C105.288 235.749 105.461 236.296 105.461 237.016C105.475 237.922 105.121 238.676 104.401 239.276C103.695 239.876 102.728 240.176 101.501 240.176ZM111.136 240.176C110.296 240.176 109.602 240.036 109.056 239.756C108.509 239.476 108.102 239.109 107.836 238.656C107.569 238.189 107.436 237.682 107.436 237.136C107.436 236.176 107.809 235.416 108.556 234.856C109.302 234.296 110.369 234.016 111.756 234.016H114.356V233.836C114.356 233.062 114.142 232.482 113.716 232.096C113.302 231.709 112.762 231.516 112.096 231.516C111.509 231.516 110.996 231.662 110.556 231.956C110.129 232.236 109.869 232.656 109.776 233.216H107.656C107.722 232.496 107.962 231.882 108.376 231.376C108.802 230.856 109.336 230.462 109.976 230.196C110.629 229.916 111.342 229.776 112.116 229.776C113.502 229.776 114.576 230.142 115.336 230.876C116.096 231.596 116.476 232.582 116.476 233.836V239.936H114.636L114.456 238.236C114.176 238.782 113.769 239.242 113.236 239.616C112.702 239.989 112.002 240.176 111.136 240.176ZM111.556 238.456C112.129 238.456 112.609 238.322 112.996 238.056C113.396 237.776 113.702 237.409 113.916 236.956C114.142 236.502 114.282 236.002 114.336 235.456H111.976C111.136 235.456 110.536 235.602 110.176 235.896C109.829 236.189 109.656 236.556 109.656 236.996C109.656 237.449 109.822 237.809 110.156 238.076C110.502 238.329 110.969 238.456 111.556 238.456ZM123.467 240.176C122.507 240.176 121.661 239.949 120.927 239.496C120.194 239.042 119.621 238.422 119.207 237.636C118.794 236.849 118.587 235.956 118.587 234.956C118.587 233.956 118.794 233.069 119.207 232.296C119.621 231.509 120.194 230.896 120.927 230.456C121.674 230.002 122.527 229.776 123.487 229.776C124.274 229.776 124.961 229.929 125.547 230.236C126.147 230.542 126.614 230.976 126.947 231.536V225.536H129.067V239.936H127.167L126.947 238.396C126.627 238.862 126.187 239.276 125.627 239.636C125.067 239.996 124.347 240.176 123.467 240.176ZM123.847 238.336C124.754 238.336 125.494 238.022 126.067 237.396C126.654 236.769 126.947 235.962 126.947 234.976C126.947 233.976 126.654 233.169 126.067 232.556C125.494 231.929 124.754 231.616 123.847 231.616C122.941 231.616 122.194 231.929 121.607 232.556C121.021 233.169 120.727 233.976 120.727 234.976C120.727 235.629 120.861 236.209 121.127 236.716C121.394 237.222 121.761 237.622 122.227 237.916C122.707 238.196 123.247 238.336 123.847 238.336ZM136.38 240.176C135.434 240.176 134.58 239.962 133.82 239.536C133.074 239.096 132.48 238.489 132.04 237.716C131.6 236.929 131.38 236.016 131.38 234.976C131.38 233.936 131.6 233.029 132.04 232.256C132.494 231.469 133.1 230.862 133.86 230.436C134.62 229.996 135.467 229.776 136.4 229.776C137.347 229.776 138.194 229.996 138.94 230.436C139.7 230.862 140.3 231.469 140.74 232.256C141.194 233.029 141.42 233.936 141.42 234.976C141.42 236.016 141.194 236.929 140.74 237.716C140.3 238.489 139.7 239.096 138.94 239.536C138.18 239.962 137.327 240.176 136.38 240.176ZM136.38 238.356C136.887 238.356 137.354 238.229 137.78 237.976C138.22 237.722 138.574 237.349 138.84 236.856C139.107 236.349 139.24 235.722 139.24 234.976C139.24 234.229 139.107 233.609 138.84 233.116C138.587 232.609 138.24 232.229 137.8 231.976C137.374 231.722 136.907 231.596 136.4 231.596C135.894 231.596 135.42 231.722 134.98 231.976C134.554 232.229 134.207 232.609 133.94 233.116C133.674 233.609 133.54 234.229 133.54 234.976C133.54 235.722 133.674 236.349 133.94 236.856C134.207 237.349 134.554 237.722 134.98 237.976C135.407 238.229 135.874 238.356 136.38 238.356ZM143.713 239.936V230.016H145.613L145.793 231.896C146.14 231.242 146.62 230.729 147.233 230.356C147.86 229.969 148.613 229.776 149.493 229.776V231.996H148.913C148.326 231.996 147.8 232.096 147.333 232.296C146.88 232.482 146.513 232.809 146.233 233.276C145.966 233.729 145.833 234.362 145.833 235.176V239.936H143.713Z" fill="#FFFAF2"/>
<path d="M72.1018 212.216C70.8538 212.216 69.7738 211.946 68.8618 211.406C67.9618 210.854 67.2658 210.092 66.7738 209.12C66.2818 208.136 66.0358 207.002 66.0358 205.718C66.0358 204.422 66.2818 203.288 66.7738 202.316C67.2658 201.332 67.9618 200.564 68.8618 200.012C69.7738 199.46 70.8538 199.184 72.1018 199.184C73.5778 199.184 74.7838 199.544 75.7198 200.264C76.6558 200.984 77.2498 201.992 77.5018 203.288H75.3778C75.2098 202.556 74.8498 201.974 74.2978 201.542C73.7458 201.11 73.0078 200.894 72.0838 200.894C70.8238 200.894 69.8278 201.326 69.0958 202.19C68.3638 203.042 67.9978 204.218 67.9978 205.718C67.9978 207.206 68.3638 208.376 69.0958 209.228C69.8278 210.08 70.8238 210.506 72.0838 210.506C73.0078 210.506 73.7458 210.302 74.2978 209.894C74.8498 209.486 75.2098 208.928 75.3778 208.22H77.5018C77.2498 209.468 76.6558 210.446 75.7198 211.154C74.7838 211.862 73.5778 212.216 72.1018 212.216ZM80.571 215.96L82.713 211.262H82.191L78.663 203.072H80.733L83.469 209.678L86.331 203.072H88.347L82.587 215.96H80.571ZM94.9377 212.216C94.2417 212.216 93.6237 212.078 93.0837 211.802C92.5557 211.526 92.1357 211.136 91.8237 210.632L91.6257 212H89.9157V199.04H91.8237V204.458C92.1117 204.038 92.5077 203.666 93.0117 203.342C93.5157 203.018 94.1637 202.856 94.9557 202.856C95.8197 202.856 96.5817 203.06 97.2417 203.468C97.9017 203.876 98.4177 204.434 98.7897 205.142C99.1737 205.85 99.3657 206.654 99.3657 207.554C99.3657 208.454 99.1737 209.258 98.7897 209.966C98.4177 210.662 97.9017 211.214 97.2417 211.622C96.5817 212.018 95.8137 212.216 94.9377 212.216ZM94.6137 210.56C95.4297 210.56 96.1017 210.284 96.6297 209.732C97.1577 209.168 97.4217 208.436 97.4217 207.536C97.4217 206.948 97.3017 206.426 97.0617 205.97C96.8217 205.514 96.4917 205.16 96.0717 204.908C95.6517 204.644 95.1657 204.512 94.6137 204.512C93.7977 204.512 93.1257 204.794 92.5977 205.358C92.0817 205.922 91.8237 206.648 91.8237 207.536C91.8237 208.436 92.0817 209.168 92.5977 209.732C93.1257 210.284 93.7977 210.56 94.6137 210.56ZM105.605 212.216C104.729 212.216 103.949 212.024 103.265 211.64C102.593 211.244 102.065 210.698 101.681 210.002C101.297 209.306 101.105 208.496 101.105 207.572C101.105 206.636 101.291 205.814 101.663 205.106C102.047 204.398 102.575 203.846 103.247 203.45C103.931 203.054 104.723 202.856 105.623 202.856C106.499 202.856 107.261 203.054 107.909 203.45C108.557 203.834 109.061 204.35 109.421 204.998C109.781 205.646 109.961 206.36 109.961 207.14C109.961 207.26 109.955 207.392 109.943 207.536C109.943 207.668 109.937 207.818 109.925 207.986H102.977C103.037 208.85 103.319 209.51 103.823 209.966C104.339 210.41 104.933 210.632 105.605 210.632C106.145 210.632 106.595 210.512 106.955 210.272C107.327 210.02 107.603 209.684 107.783 209.264H109.691C109.451 210.104 108.971 210.806 108.251 211.37C107.543 211.934 106.661 212.216 105.605 212.216ZM105.605 204.422C104.969 204.422 104.405 204.614 103.913 204.998C103.421 205.37 103.121 205.934 103.013 206.69H108.053C108.017 205.994 107.771 205.442 107.315 205.034C106.859 204.626 106.289 204.422 105.605 204.422ZM111.941 212V203.072H113.651L113.813 204.764C114.125 204.176 114.557 203.714 115.109 203.378C115.673 203.03 116.351 202.856 117.143 202.856V204.854H116.621C116.093 204.854 115.619 204.944 115.199 205.124C114.791 205.292 114.461 205.586 114.209 206.006C113.969 206.414 113.849 206.984 113.849 207.716V212H111.941Z" fill="#FFFAF2" fill-opacity="0.65"/>
<path opacity="0.5" d="M66.8906 34.595L80.5406 24V162.06L66.8906 152.57V34.66V34.595Z" fill="white"/>
<path opacity="0.5" d="M42.7109 48.1158L56.3609 39.9258V146.071L42.7109 138.726V48.0508V48.1158Z" fill="white"/>
<path opacity="0.5" d="M139.3 138.79L125.65 146.135V39.9902L139.3 48.1802V138.855V138.79Z" fill="white"/>
<path opacity="0.5" d="M115.316 34.595L101.666 24V162.06L115.316 152.57V34.66V34.595Z" fill="white"/>
<path opacity="0.5" d="M39.9805 73.4005L19.1155 64.1055C19.1155 64.1055 14.8905 72.5555 22.8855 76.0655C30.8805 79.5755 32.7005 80.0305 32.1805 85.6855C28.9305 84.1905 22.3005 80.9405 22.3005 80.9405C22.3005 80.9405 20.0255 88.4155 25.8755 91.0805C31.7255 93.7455 34.9755 94.7855 33.8055 100.765C30.8155 98.9455 26.7205 95.9555 26.7205 95.9555C26.7205 95.9555 24.7705 103.17 29.8405 106.745C29.8405 106.745 32.4405 108.305 33.0905 109.475C33.8055 110.645 35.4305 114.155 39.9805 113.96V73.4005Z" fill="white"/>
<path opacity="0.5" d="M142.225 73.4005L163.09 64.1055C163.09 64.1055 167.315 72.5555 159.32 76.0655C151.325 79.5755 149.505 80.0305 150.025 85.6855C153.275 84.1905 159.905 80.9405 159.905 80.9405C159.905 80.9405 162.18 88.4155 156.33 91.0805C150.48 93.7455 147.23 94.7855 148.465 100.765C151.455 98.9455 155.55 95.9555 155.55 95.9555C155.55 95.9555 157.5 103.17 152.43 106.745C152.43 106.745 149.83 108.305 149.18 109.475C148.465 110.645 146.84 114.155 142.225 113.96V73.4005Z" fill="white"/>
<path d="M39.6562 72.0358V124.231C39.6562 126.376 40.8262 128.326 42.6462 129.366L88.0812 155.496C89.9012 156.536 92.1762 156.536 93.9962 155.496L139.431 129.366C141.251 128.326 142.421 126.311 142.421 124.231V72.0358C142.421 69.8908 141.251 67.9408 139.431 66.8358L93.9962 40.7058C92.1762 39.6658 89.9012 39.6658 88.0812 40.7058L42.6462 66.8358C40.8262 67.8758 39.6562 69.8908 39.6562 72.0358Z" fill="#7664A3" stroke="#FEEFD9" stroke-width="0.52" stroke-miterlimit="10"/>
<path d="M39.916 62.9356V115.131C39.916 117.276 41.086 119.226 42.906 120.266L88.146 146.396C89.966 147.436 92.241 147.436 94.126 146.396L139.366 120.266C141.186 119.226 142.356 117.211 142.356 115.131V62.9356C142.356 60.7906 141.186 58.8406 139.366 57.8006L94.126 31.6706C92.306 30.6306 90.031 30.6306 88.146 31.6706L42.906 57.8006C41.086 58.8406 39.916 60.8556 39.916 62.9356Z" fill="url(#paint0_linear_3317_256)" stroke="#FEEFD9" stroke-width="1.3" stroke-miterlimit="10"/>
<path d="M50.25 68.9141V109.149C50.25 111.294 51.42 113.244 53.24 114.284L88.08 134.369C89.9 135.409 92.1749 135.409 94.0599 134.369L128.9 114.284C130.72 113.244 131.89 111.229 131.89 109.149V68.9141C131.89 66.7691 130.72 64.8191 128.9 63.7791L94.0599 43.6941C92.2399 42.6541 89.965 42.6541 88.08 43.6941L53.24 63.7791C51.42 64.8191 50.25 66.8341 50.25 68.9141Z" fill="url(#paint1_linear_3317_256)"/>
<path d="M50.3809 68.9805V109.215C50.3809 111.36 51.5509 113.31 53.3709 114.35L88.2109 134.435C90.0309 135.475 92.3059 135.475 94.1909 134.435L129.031 114.35C130.851 113.31 132.021 111.295 132.021 109.215V68.9805C132.021 66.8355 130.851 64.8855 129.031 63.8455L94.1909 43.7605C92.3709 42.7205 90.0959 42.7205 88.2109 43.7605L53.3709 63.8455C51.5509 64.8855 50.3809 66.9005 50.3809 68.9805Z" fill="url(#paint2_linear_3317_256)"/>
<path d="M50.25 68.9146V109.15C50.25 111.295 51.42 113.245 53.24 114.285L88.08 134.435C89.9 135.475 92.1749 135.475 94.0599 134.435L128.9 114.285C130.72 113.245 131.89 111.23 131.89 109.15V68.9146C131.89 66.7696 130.72 64.8196 128.9 63.7796L94.0599 43.6296C92.2399 42.5896 89.965 42.5896 88.08 43.6296L53.24 63.7796C51.42 64.8196 50.25 66.8346 50.25 68.9146Z" stroke="#FEEFD9" stroke-width="0.325" stroke-miterlimit="10"/>
<g opacity="0.5">
<path d="M66.8906 85.5547H78.9806L88.0156 113.18L66.8906 85.5547Z" fill="white"/>
<path d="M115.25 85.5547H103.16L94.125 113.18L115.25 85.5547Z" fill="white"/>
<path d="M91.0702 114.48L82.0352 85.5547H100.17L91.1352 114.48H91.0702Z" fill="white"/>
<path d="M78.9806 82.3055H66.8906L72.9356 72.6855L78.9806 82.3055Z" fill="white"/>
<path d="M115.25 82.3055H103.16L109.205 72.6855L115.25 82.3055Z" fill="white"/>
<path d="M97.1154 82.3055H85.0254L91.0703 72.6855L97.1154 82.3055Z" fill="white"/>
<path d="M76.9648 72.6855H88.0148L81.9698 82.3055L76.9648 72.6855Z" fill="white"/>
<path d="M94.0605 72.6855H106.151L100.106 82.3055L94.0605 72.6855Z" fill="white"/>
</g>
</g>
<defs>
<linearGradient id="paint0_linear_3317_256" x1="91.071" y1="256.831" x2="91.071" y2="256.831" gradientUnits="userSpaceOnUse">
<stop stop-color="#B49FEC"/>
<stop offset="1" stop-color="#60508A"/>
</linearGradient>
<linearGradient id="paint1_linear_3317_256" x1="91.07" y1="256.829" x2="91.07" y2="256.829" gradientUnits="userSpaceOnUse">
<stop stop-color="#B49FEC"/>
<stop offset="1" stop-color="#60508A"/>
</linearGradient>
<linearGradient id="paint2_linear_3317_256" x1="91.2009" y1="42.9155" x2="91.2009" y2="135.28" gradientUnits="userSpaceOnUse">
<stop stop-color="#B49FEC"/>
<stop offset="1" stop-color="#60508A"/>
</linearGradient>
</defs>
</svg>
