<svg width="181" height="246" viewBox="0 0 181 246" fill="none" xmlns="http://www.w3.org/2000/svg">
<mask id="mask0_3317_252" style="mask-type:alpha" maskUnits="userSpaceOnUse" x="0" y="0" width="181" height="246">
<rect width="181" height="246" fill="#D9D9D9"/>
</mask>
<g mask="url(#mask0_3317_252)">
<path d="M67.9332 237.625C66.5465 237.625 65.3465 237.325 64.3332 236.725C63.3332 236.111 62.5599 235.265 62.0132 234.185C61.4665 233.091 61.1932 231.831 61.1932 230.405C61.1932 228.965 61.4665 227.705 62.0132 226.625C62.5599 225.531 63.3332 224.678 64.3332 224.065C65.3465 223.451 66.5465 223.145 67.9332 223.145C69.5732 223.145 70.9132 223.545 71.9532 224.345C72.9932 225.145 73.6532 226.265 73.9332 227.705H71.5732C71.3865 226.891 70.9865 226.245 70.3732 225.765C69.7599 225.285 68.9399 225.045 67.9132 225.045C66.5132 225.045 65.4065 225.525 64.5932 226.485C63.7799 227.431 63.3732 228.738 63.3732 230.405C63.3732 232.058 63.7799 233.358 64.5932 234.305C65.4065 235.251 66.5132 235.725 67.9132 235.725C68.9399 235.725 69.7599 235.498 70.3732 235.045C70.9865 234.591 71.3865 233.971 71.5732 233.185H73.9332C73.6532 234.571 72.9932 235.658 71.9532 236.445C70.9132 237.231 69.5732 237.625 67.9332 237.625ZM79.5435 237.625C78.7035 237.625 78.0102 237.485 77.4635 237.205C76.9168 236.925 76.5102 236.558 76.2435 236.105C75.9768 235.638 75.8435 235.131 75.8435 234.585C75.8435 233.625 76.2168 232.865 76.9635 232.305C77.7102 231.745 78.7768 231.465 80.1635 231.465H82.7635V231.285C82.7635 230.511 82.5502 229.931 82.1235 229.545C81.7102 229.158 81.1702 228.965 80.5035 228.965C79.9168 228.965 79.4035 229.111 78.9635 229.405C78.5368 229.685 78.2768 230.105 78.1835 230.665H76.0635C76.1302 229.945 76.3702 229.331 76.7835 228.825C77.2102 228.305 77.7435 227.911 78.3835 227.645C79.0368 227.365 79.7502 227.225 80.5235 227.225C81.9102 227.225 82.9835 227.591 83.7435 228.325C84.5035 229.045 84.8835 230.031 84.8835 231.285V237.385H83.0435L82.8635 235.685C82.5835 236.231 82.1768 236.691 81.6435 237.065C81.1102 237.438 80.4102 237.625 79.5435 237.625ZM79.9635 235.905C80.5368 235.905 81.0168 235.771 81.4035 235.505C81.8035 235.225 82.1102 234.858 82.3235 234.405C82.5502 233.951 82.6902 233.451 82.7435 232.905H80.3835C79.5435 232.905 78.9435 233.051 78.5835 233.345C78.2368 233.638 78.0635 234.005 78.0635 234.445C78.0635 234.898 78.2302 235.258 78.5635 235.525C78.9102 235.778 79.3768 235.905 79.9635 235.905ZM91.8754 237.625C90.9154 237.625 90.0687 237.398 89.3354 236.945C88.6021 236.491 88.0287 235.871 87.6154 235.085C87.2021 234.298 86.9954 233.405 86.9954 232.405C86.9954 231.405 87.2021 230.518 87.6154 229.745C88.0287 228.958 88.6021 228.345 89.3354 227.905C90.0821 227.451 90.9354 227.225 91.8954 227.225C92.6821 227.225 93.3687 227.378 93.9554 227.685C94.5554 227.991 95.0221 228.425 95.3554 228.985V222.985H97.4754V237.385H95.5754L95.3554 235.845C95.0354 236.311 94.5954 236.725 94.0354 237.085C93.4754 237.445 92.7554 237.625 91.8754 237.625ZM92.2554 235.785C93.1621 235.785 93.9021 235.471 94.4754 234.845C95.0621 234.218 95.3554 233.411 95.3554 232.425C95.3554 231.425 95.0621 230.618 94.4754 230.005C93.9021 229.378 93.1621 229.065 92.2554 229.065C91.3487 229.065 90.6021 229.378 90.0154 230.005C89.4287 230.618 89.1354 231.425 89.1354 232.425C89.1354 233.078 89.2687 233.658 89.5354 234.165C89.8021 234.671 90.1687 235.071 90.6354 235.365C91.1154 235.645 91.6554 235.785 92.2554 235.785ZM104.788 237.625C103.815 237.625 102.948 237.411 102.188 236.985C101.442 236.545 100.855 235.938 100.428 235.165C100.002 234.391 99.7884 233.491 99.7884 232.465C99.7884 231.425 99.995 230.511 100.408 229.725C100.835 228.938 101.422 228.325 102.168 227.885C102.928 227.445 103.808 227.225 104.808 227.225C105.782 227.225 106.628 227.445 107.348 227.885C108.068 228.311 108.628 228.885 109.028 229.605C109.428 230.325 109.628 231.118 109.628 231.985C109.628 232.118 109.622 232.265 109.608 232.425C109.608 232.571 109.602 232.738 109.588 232.925H101.868C101.935 233.885 102.248 234.618 102.808 235.125C103.382 235.618 104.042 235.865 104.788 235.865C105.388 235.865 105.888 235.731 106.288 235.465C106.702 235.185 107.008 234.811 107.208 234.345H109.328C109.062 235.278 108.528 236.058 107.728 236.685C106.942 237.311 105.962 237.625 104.788 237.625ZM104.788 228.965C104.082 228.965 103.455 229.178 102.908 229.605C102.362 230.018 102.028 230.645 101.908 231.485H107.508C107.468 230.711 107.195 230.098 106.688 229.645C106.182 229.191 105.548 228.965 104.788 228.965ZM115.734 237.385C114.761 237.385 113.987 237.151 113.414 236.685C112.841 236.205 112.554 235.358 112.554 234.145V229.245H110.854V227.465H112.554L112.814 224.945H114.674V227.465H117.474V229.245H114.674V234.145C114.674 234.691 114.787 235.071 115.014 235.285C115.254 235.485 115.661 235.585 116.234 235.585H117.374V237.385H115.734Z" fill="#FFFAF2"/>
<path d="M71.0451 209.665C69.7971 209.665 68.7171 209.395 67.8051 208.855C66.9051 208.303 66.2091 207.541 65.7171 206.569C65.2251 205.585 64.9791 204.451 64.9791 203.167C64.9791 201.871 65.2251 200.737 65.7171 199.765C66.2091 198.781 66.9051 198.013 67.8051 197.461C68.7171 196.909 69.7971 196.633 71.0451 196.633C72.5211 196.633 73.7271 196.993 74.6631 197.713C75.5991 198.433 76.1931 199.441 76.4451 200.737H74.3211C74.1531 200.005 73.7931 199.423 73.2411 198.991C72.6891 198.559 71.9511 198.343 71.0271 198.343C69.7671 198.343 68.7711 198.775 68.0391 199.639C67.3071 200.491 66.9411 201.667 66.9411 203.167C66.9411 204.655 67.3071 205.825 68.0391 206.677C68.7711 207.529 69.7671 207.955 71.0271 207.955C71.9511 207.955 72.6891 207.751 73.2411 207.343C73.7931 206.935 74.1531 206.377 74.3211 205.669H76.4451C76.1931 206.917 75.5991 207.895 74.6631 208.603C73.7271 209.311 72.5211 209.665 71.0451 209.665ZM79.5144 213.409L81.6564 208.711H81.1344L77.6064 200.521H79.6764L82.4124 207.127L85.2744 200.521H87.2904L81.5304 213.409H79.5144ZM93.8811 209.665C93.1851 209.665 92.5671 209.527 92.0271 209.251C91.4991 208.975 91.0791 208.585 90.7671 208.081L90.5691 209.449H88.8591V196.489H90.7671V201.907C91.0551 201.487 91.4511 201.115 91.9551 200.791C92.4591 200.467 93.1071 200.305 93.8991 200.305C94.7631 200.305 95.5251 200.509 96.1851 200.917C96.8451 201.325 97.3611 201.883 97.7331 202.591C98.1171 203.299 98.3091 204.103 98.3091 205.003C98.3091 205.903 98.1171 206.707 97.7331 207.415C97.3611 208.111 96.8451 208.663 96.1851 209.071C95.5251 209.467 94.7571 209.665 93.8811 209.665ZM93.5571 208.009C94.3731 208.009 95.0451 207.733 95.5731 207.181C96.1011 206.617 96.3651 205.885 96.3651 204.985C96.3651 204.397 96.2451 203.875 96.0051 203.419C95.7651 202.963 95.4351 202.609 95.0151 202.357C94.5951 202.093 94.1091 201.961 93.5571 201.961C92.7411 201.961 92.0691 202.243 91.5411 202.807C91.0251 203.371 90.7671 204.097 90.7671 204.985C90.7671 205.885 91.0251 206.617 91.5411 207.181C92.0691 207.733 92.7411 208.009 93.5571 208.009ZM104.549 209.665C103.673 209.665 102.893 209.473 102.209 209.089C101.537 208.693 101.009 208.147 100.625 207.451C100.241 206.755 100.049 205.945 100.049 205.021C100.049 204.085 100.235 203.263 100.607 202.555C100.991 201.847 101.519 201.295 102.191 200.899C102.875 200.503 103.667 200.305 104.567 200.305C105.443 200.305 106.205 200.503 106.853 200.899C107.501 201.283 108.005 201.799 108.365 202.447C108.725 203.095 108.905 203.809 108.905 204.589C108.905 204.709 108.899 204.841 108.887 204.985C108.887 205.117 108.881 205.267 108.869 205.435H101.921C101.981 206.299 102.263 206.959 102.767 207.415C103.283 207.859 103.877 208.081 104.549 208.081C105.089 208.081 105.539 207.961 105.899 207.721C106.271 207.469 106.547 207.133 106.727 206.713H108.635C108.395 207.553 107.915 208.255 107.195 208.819C106.487 209.383 105.605 209.665 104.549 209.665ZM104.549 201.871C103.913 201.871 103.349 202.063 102.857 202.447C102.365 202.819 102.065 203.383 101.957 204.139H106.997C106.961 203.443 106.715 202.891 106.259 202.483C105.803 202.075 105.233 201.871 104.549 201.871ZM110.884 209.449V200.521H112.594L112.756 202.213C113.068 201.625 113.5 201.163 114.052 200.827C114.616 200.479 115.294 200.305 116.086 200.305V202.303H115.564C115.036 202.303 114.562 202.393 114.142 202.573C113.734 202.741 113.404 203.035 113.152 203.455C112.912 203.863 112.792 204.433 112.792 205.165V209.449H110.884Z" fill="#FFFAF2" fill-opacity="0.65"/>
<path d="M42 71.2096V123.405C42 125.55 43.17 127.5 44.99 128.54L90.425 154.67C92.245 155.71 94.52 155.71 96.34 154.67L141.775 128.54C143.595 127.5 144.765 125.485 144.765 123.405V71.2096C144.765 69.0646 143.595 67.1146 141.775 66.0096L96.34 39.8796C94.52 38.8396 92.245 38.8396 90.425 39.8796L44.99 66.0096C43.17 67.0496 42 69.0646 42 71.2096Z" fill="url(#paint0_linear_3317_252)" stroke="#FEEFD9" stroke-width="0.52" stroke-miterlimit="10"/>
<path d="M42.2598 62.045V114.24C42.2598 116.385 43.4298 118.335 45.2498 119.375L90.4898 145.505C92.3098 146.545 94.5848 146.545 96.4698 145.505L141.71 119.375C143.53 118.335 144.7 116.32 144.7 114.24V62.045C144.7 59.9 143.53 57.95 141.71 56.91L96.4698 30.78C94.6498 29.74 92.3748 29.74 90.4898 30.78L45.2498 56.91C43.4298 57.95 42.2598 59.965 42.2598 62.045Z" fill="url(#paint1_linear_3317_252)" stroke="#FEEFD9" stroke-width="1.3" stroke-miterlimit="10"/>
<path d="M52.5957 68.0904V108.325C52.5957 110.47 53.7657 112.42 55.5857 113.46L90.4257 133.61C92.2457 134.65 94.5207 134.65 96.4057 133.61L131.246 113.46C133.066 112.42 134.236 110.405 134.236 108.325V68.0904C134.236 65.9454 133.066 63.9954 131.246 62.9554L96.4057 42.8054C94.5857 41.7654 92.3107 41.7654 90.4257 42.8054L55.5857 62.9554C53.7657 63.9954 52.5957 66.0104 52.5957 68.0904Z" fill="url(#paint2_linear_3317_252)"/>
<path d="M52.5957 68.0898V108.325C52.5957 110.47 53.7657 112.42 55.5857 113.46L90.4257 133.545C92.2457 134.585 94.5207 134.585 96.4057 133.545L131.246 113.46C133.066 112.42 134.236 110.405 134.236 108.325V68.0898C134.236 65.9448 133.066 63.9948 131.246 62.9548L96.4057 42.8698C94.5857 41.8298 92.3107 41.8298 90.4257 42.8698L55.5857 62.9548C53.7657 63.9948 52.5957 66.0098 52.5957 68.0898Z" stroke="#FEEFD9" stroke-width="0.325" stroke-miterlimit="10"/>
<g opacity="0.5">
<path d="M69.2363 84.7285H81.3263L90.3613 112.354L69.2363 84.7285Z" fill="white"/>
<path d="M117.531 84.7285H105.441L96.4062 112.354L117.531 84.7285Z" fill="white"/>
<path d="M93.4159 113.654L84.3809 84.7285H102.516L93.4809 113.654H93.4159Z" fill="white"/>
<path d="M81.3263 81.4794H69.2363L75.2813 71.8594L81.3263 81.4794Z" fill="white"/>
<path d="M117.531 81.4794H105.441L111.486 71.8594L117.531 81.4794Z" fill="white"/>
<path d="M99.4611 81.4794H87.3711L93.4161 71.8594L99.4611 81.4794Z" fill="white"/>
<path d="M79.3105 71.8594H90.3605L84.3155 81.4794L79.3105 71.8594Z" fill="white"/>
<path d="M96.4062 71.8594H108.496L102.451 81.4794L96.4062 71.8594Z" fill="white"/>
</g>
</g>
<defs>
<linearGradient id="paint0_linear_3317_252" x1="93.415" y1="39.0996" x2="93.415" y2="155.45" gradientUnits="userSpaceOnUse">
<stop stop-color="#B49FEC"/>
<stop offset="1" stop-color="#60508A"/>
</linearGradient>
<linearGradient id="paint1_linear_3317_252" x1="93.4148" y1="146.35" x2="93.4148" y2="30" gradientUnits="userSpaceOnUse">
<stop stop-color="#B49FEC"/>
<stop offset="1" stop-color="#60508A"/>
</linearGradient>
<linearGradient id="paint2_linear_3317_252" x1="93.4157" y1="41.9604" x2="93.4157" y2="134.39" gradientUnits="userSpaceOnUse">
<stop stop-color="#B49FEC"/>
<stop offset="1" stop-color="#60508A"/>
</linearGradient>
</defs>
</svg>
