<svg width="181" height="246" viewBox="0 0 181 246" fill="none" xmlns="http://www.w3.org/2000/svg">
<mask id="mask0_3317_254" style="mask-type:alpha" maskUnits="userSpaceOnUse" x="0" y="0" width="181" height="246">
<rect width="181" height="246" fill="#D9D9D9"/>
</mask>
<g mask="url(#mask0_3317_254)">
<path d="M48.6795 240.936V226.936H53.2195C54.8595 226.936 56.2062 227.222 57.2595 227.796C58.3262 228.369 59.1129 229.182 59.6195 230.236C60.1395 231.276 60.3995 232.516 60.3995 233.956C60.3995 235.382 60.1395 236.622 59.6195 237.676C59.1129 238.716 58.3262 239.522 57.2595 240.096C56.2062 240.656 54.8595 240.936 53.2195 240.936H48.6795ZM50.7995 239.136H53.1395C54.4062 239.136 55.4062 238.929 56.1395 238.516C56.8862 238.102 57.4195 237.509 57.7395 236.736C58.0729 235.962 58.2395 235.036 58.2395 233.956C58.2395 232.876 58.0729 231.942 57.7395 231.156C57.4195 230.369 56.8862 229.769 56.1395 229.356C55.4062 228.929 54.4062 228.716 53.1395 228.716H50.7995V239.136ZM67.302 241.176C66.3287 241.176 65.462 240.962 64.702 240.536C63.9554 240.096 63.3687 239.489 62.942 238.716C62.5154 237.942 62.302 237.042 62.302 236.016C62.302 234.976 62.5087 234.062 62.922 233.276C63.3487 232.489 63.9354 231.876 64.682 231.436C65.442 230.996 66.322 230.776 67.322 230.776C68.2954 230.776 69.142 230.996 69.862 231.436C70.582 231.862 71.142 232.436 71.542 233.156C71.942 233.876 72.142 234.669 72.142 235.536C72.142 235.669 72.1354 235.816 72.122 235.976C72.122 236.122 72.1154 236.289 72.102 236.476H64.382C64.4487 237.436 64.762 238.169 65.322 238.676C65.8954 239.169 66.5554 239.416 67.302 239.416C67.902 239.416 68.402 239.282 68.802 239.016C69.2154 238.736 69.522 238.362 69.722 237.896H71.842C71.5754 238.829 71.042 239.609 70.242 240.236C69.4554 240.862 68.4754 241.176 67.302 241.176ZM67.302 232.516C66.5954 232.516 65.9687 232.729 65.422 233.156C64.8754 233.569 64.542 234.196 64.422 235.036H70.022C69.982 234.262 69.7087 233.649 69.202 233.196C68.6954 232.742 68.062 232.516 67.302 232.516ZM74.8417 240.936V232.796H73.4217V231.016H74.8417V229.576C74.8417 228.496 75.1084 227.722 75.6417 227.256C76.1884 226.776 76.955 226.536 77.9417 226.536H78.9817V228.336H78.2617C77.795 228.336 77.4617 228.436 77.2617 228.636C77.0617 228.822 76.9617 229.142 76.9617 229.596V231.016H79.2417V232.796H76.9617V240.936H74.8417ZM85.5052 241.176C84.5318 241.176 83.6652 240.962 82.9052 240.536C82.1585 240.096 81.5718 239.489 81.1452 238.716C80.7185 237.942 80.5052 237.042 80.5052 236.016C80.5052 234.976 80.7118 234.062 81.1252 233.276C81.5518 232.489 82.1385 231.876 82.8852 231.436C83.6452 230.996 84.5252 230.776 85.5252 230.776C86.4985 230.776 87.3452 230.996 88.0652 231.436C88.7852 231.862 89.3452 232.436 89.7452 233.156C90.1452 233.876 90.3452 234.669 90.3452 235.536C90.3452 235.669 90.3385 235.816 90.3252 235.976C90.3252 236.122 90.3185 236.289 90.3052 236.476H82.5852C82.6518 237.436 82.9652 238.169 83.5252 238.676C84.0985 239.169 84.7585 239.416 85.5052 239.416C86.1052 239.416 86.6052 239.282 87.0052 239.016C87.4185 238.736 87.7252 238.362 87.9252 237.896H90.0452C89.7785 238.829 89.2452 239.609 88.4452 240.236C87.6585 240.862 86.6785 241.176 85.5052 241.176ZM85.5052 232.516C84.7985 232.516 84.1718 232.729 83.6252 233.156C83.0785 233.569 82.7452 234.196 82.6252 235.036H88.2252C88.1852 234.262 87.9118 233.649 87.4052 233.196C86.8985 232.742 86.2652 232.516 85.5052 232.516ZM92.5448 240.936V231.016H94.4248L94.5848 232.756C94.8915 232.142 95.3382 231.662 95.9248 231.316C96.5248 230.956 97.2115 230.776 97.9848 230.776C99.1848 230.776 100.125 231.149 100.805 231.896C101.498 232.642 101.845 233.756 101.845 235.236V240.936H99.7448V235.456C99.7448 233.536 98.9582 232.576 97.3848 232.576C96.5982 232.576 95.9448 232.856 95.4248 233.416C94.9182 233.976 94.6648 234.776 94.6648 235.816V240.936H92.5448ZM108.862 241.176C107.902 241.176 107.055 240.949 106.322 240.496C105.588 240.042 105.015 239.422 104.602 238.636C104.188 237.849 103.982 236.956 103.982 235.956C103.982 234.956 104.188 234.069 104.602 233.296C105.015 232.509 105.588 231.896 106.322 231.456C107.068 231.002 107.922 230.776 108.882 230.776C109.668 230.776 110.355 230.929 110.942 231.236C111.542 231.542 112.008 231.976 112.342 232.536V226.536H114.462V240.936H112.562L112.342 239.396C112.022 239.862 111.582 240.276 111.022 240.636C110.462 240.996 109.742 241.176 108.862 241.176ZM109.242 239.336C110.148 239.336 110.888 239.022 111.462 238.396C112.048 237.769 112.342 236.962 112.342 235.976C112.342 234.976 112.048 234.169 111.462 233.556C110.888 232.929 110.148 232.616 109.242 232.616C108.335 232.616 107.588 232.929 107.002 233.556C106.415 234.169 106.122 234.976 106.122 235.976C106.122 236.629 106.255 237.209 106.522 237.716C106.788 238.222 107.155 238.622 107.622 238.916C108.102 239.196 108.642 239.336 109.242 239.336ZM121.775 241.176C120.801 241.176 119.935 240.962 119.175 240.536C118.428 240.096 117.841 239.489 117.415 238.716C116.988 237.942 116.775 237.042 116.775 236.016C116.775 234.976 116.981 234.062 117.395 233.276C117.821 232.489 118.408 231.876 119.155 231.436C119.915 230.996 120.795 230.776 121.795 230.776C122.768 230.776 123.615 230.996 124.335 231.436C125.055 231.862 125.615 232.436 126.015 233.156C126.415 233.876 126.615 234.669 126.615 235.536C126.615 235.669 126.608 235.816 126.595 235.976C126.595 236.122 126.588 236.289 126.575 236.476H118.855C118.921 237.436 119.235 238.169 119.795 238.676C120.368 239.169 121.028 239.416 121.775 239.416C122.375 239.416 122.875 239.282 123.275 239.016C123.688 238.736 123.995 238.362 124.195 237.896H126.315C126.048 238.829 125.515 239.609 124.715 240.236C123.928 240.862 122.948 241.176 121.775 241.176ZM121.775 232.516C121.068 232.516 120.441 232.729 119.895 233.156C119.348 233.569 119.015 234.196 118.895 235.036H124.495C124.455 234.262 124.181 233.649 123.675 233.196C123.168 232.742 122.535 232.516 121.775 232.516ZM128.814 240.936V231.016H130.714L130.894 232.896C131.241 232.242 131.721 231.729 132.334 231.356C132.961 230.969 133.714 230.776 134.594 230.776V232.996H134.014C133.428 232.996 132.901 233.096 132.434 233.296C131.981 233.482 131.614 233.809 131.334 234.276C131.068 234.729 130.934 235.362 130.934 236.176V240.936H128.814Z" fill="#FFFAF2"/>
<path d="M72.9143 213.216C71.6663 213.216 70.5863 212.946 69.6743 212.406C68.7743 211.854 68.0783 211.092 67.5863 210.12C67.0943 209.136 66.8483 208.002 66.8483 206.718C66.8483 205.422 67.0943 204.288 67.5863 203.316C68.0783 202.332 68.7743 201.564 69.6743 201.012C70.5863 200.46 71.6663 200.184 72.9143 200.184C74.3903 200.184 75.5963 200.544 76.5323 201.264C77.4683 201.984 78.0623 202.992 78.3143 204.288H76.1903C76.0223 203.556 75.6623 202.974 75.1103 202.542C74.5583 202.11 73.8203 201.894 72.8963 201.894C71.6363 201.894 70.6403 202.326 69.9083 203.19C69.1763 204.042 68.8103 205.218 68.8103 206.718C68.8103 208.206 69.1763 209.376 69.9083 210.228C70.6403 211.08 71.6363 211.506 72.8963 211.506C73.8203 211.506 74.5583 211.302 75.1103 210.894C75.6623 210.486 76.0223 209.928 76.1903 209.22H78.3143C78.0623 210.468 77.4683 211.446 76.5323 212.154C75.5963 212.862 74.3903 213.216 72.9143 213.216ZM81.3835 216.96L83.5255 212.262H83.0035L79.4755 204.072H81.5455L84.2815 210.678L87.1435 204.072H89.1595L83.3995 216.96H81.3835ZM95.7502 213.216C95.0542 213.216 94.4362 213.078 93.8962 212.802C93.3682 212.526 92.9482 212.136 92.6362 211.632L92.4382 213H90.7282V200.04H92.6362V205.458C92.9242 205.038 93.3202 204.666 93.8242 204.342C94.3282 204.018 94.9762 203.856 95.7682 203.856C96.6322 203.856 97.3942 204.06 98.0542 204.468C98.7142 204.876 99.2302 205.434 99.6022 206.142C99.9862 206.85 100.178 207.654 100.178 208.554C100.178 209.454 99.9862 210.258 99.6022 210.966C99.2302 211.662 98.7142 212.214 98.0542 212.622C97.3942 213.018 96.6262 213.216 95.7502 213.216ZM95.4262 211.56C96.2422 211.56 96.9142 211.284 97.4422 210.732C97.9702 210.168 98.2342 209.436 98.2342 208.536C98.2342 207.948 98.1142 207.426 97.8742 206.97C97.6342 206.514 97.3042 206.16 96.8842 205.908C96.4642 205.644 95.9782 205.512 95.4262 205.512C94.6102 205.512 93.9382 205.794 93.4102 206.358C92.8942 206.922 92.6362 207.648 92.6362 208.536C92.6362 209.436 92.8942 210.168 93.4102 210.732C93.9382 211.284 94.6102 211.56 95.4262 211.56ZM106.418 213.216C105.542 213.216 104.762 213.024 104.078 212.64C103.406 212.244 102.878 211.698 102.494 211.002C102.11 210.306 101.918 209.496 101.918 208.572C101.918 207.636 102.104 206.814 102.476 206.106C102.86 205.398 103.388 204.846 104.06 204.45C104.744 204.054 105.536 203.856 106.436 203.856C107.312 203.856 108.074 204.054 108.722 204.45C109.37 204.834 109.874 205.35 110.234 205.998C110.594 206.646 110.774 207.36 110.774 208.14C110.774 208.26 110.768 208.392 110.756 208.536C110.756 208.668 110.75 208.818 110.738 208.986H103.79C103.85 209.85 104.132 210.51 104.636 210.966C105.152 211.41 105.746 211.632 106.418 211.632C106.958 211.632 107.408 211.512 107.768 211.272C108.14 211.02 108.416 210.684 108.596 210.264H110.504C110.264 211.104 109.784 211.806 109.064 212.37C108.356 212.934 107.474 213.216 106.418 213.216ZM106.418 205.422C105.782 205.422 105.218 205.614 104.726 205.998C104.234 206.37 103.934 206.934 103.826 207.69H108.866C108.83 206.994 108.584 206.442 108.128 206.034C107.672 205.626 107.102 205.422 106.418 205.422ZM112.754 213V204.072H114.464L114.626 205.764C114.938 205.176 115.37 204.714 115.922 204.378C116.486 204.03 117.164 203.856 117.956 203.856V205.854H117.434C116.906 205.854 116.432 205.944 116.012 206.124C115.604 206.292 115.274 206.586 115.022 207.006C114.782 207.414 114.662 207.984 114.662 208.716V213H112.754Z" fill="#FFFAF2" fill-opacity="0.65"/>
<path d="M50.25 72.3867V112.622C50.25 114.767 51.42 116.717 53.24 117.757L88.08 137.842C89.9 138.882 92.175 138.882 94.06 137.842L128.9 117.757C130.72 116.717 131.89 114.702 131.89 112.622V72.3867C131.89 70.2417 130.72 68.2917 128.9 67.2517L94.06 47.1667C92.24 46.1267 89.965 46.1267 88.08 47.1667L53.24 67.2517C51.42 68.2917 50.25 70.3067 50.25 72.3867Z" fill="url(#paint0_linear_3317_254)"/>
<path d="M72.9355 38.0657L90.9405 27.4707L108.946 38.0657V156.041L90.8755 165.531L72.9355 156.041V38.0657Z" fill="white" fill-opacity="0.5"/>
<path opacity="0.5" d="M39.9805 76.8712L19.1155 67.5762C19.1155 67.5762 14.8905 76.0262 22.8855 79.5362C30.8805 83.0462 32.7005 83.5012 32.1805 89.1562C28.9305 87.6612 22.3005 84.4112 22.3005 84.4112C22.3005 84.4112 20.0255 91.8862 25.8755 94.5512C31.7255 97.2162 34.9755 98.2562 33.8055 104.236C30.8155 102.416 26.7205 99.4262 26.7205 99.4262C26.7205 99.4262 24.7705 106.641 29.8405 110.216C29.8405 110.216 32.4405 111.776 33.0905 112.946C33.8055 114.116 35.4305 117.626 39.9805 117.431V76.8712Z" fill="white"/>
<path opacity="0.5" d="M142.227 76.8712L163.092 67.5762C163.092 67.5762 167.317 76.0262 159.322 79.5362C151.327 83.0462 149.507 83.5012 150.027 89.1562C153.277 87.6612 159.907 84.4112 159.907 84.4112C159.907 84.4112 162.182 91.8862 156.332 94.5512C150.482 97.2162 147.232 98.2562 148.467 104.236C151.457 102.416 155.552 99.4262 155.552 99.4262C155.552 99.4262 157.502 106.641 152.432 110.216C152.432 110.216 149.832 111.776 149.182 112.946C148.467 114.116 146.842 117.626 142.227 117.431V76.8712Z" fill="white"/>
<path d="M39.6562 75.5065V127.701C39.6562 129.846 40.8262 131.796 42.6462 132.836L88.0812 158.966C89.9012 160.006 92.1762 160.006 93.9962 158.966L139.431 132.836C141.251 131.796 142.421 129.781 142.421 127.701V75.5065C142.421 73.3615 141.251 71.4115 139.431 70.3065L93.9962 44.1765C92.1762 43.1365 89.9012 43.1365 88.0812 44.1765L42.6462 70.3065C40.8262 71.3465 39.6562 73.3615 39.6562 75.5065Z" fill="#7664A3" stroke="#FEEFD9" stroke-width="0.52" stroke-miterlimit="10"/>
<path d="M39.916 66.4063V118.601C39.916 120.746 41.086 122.696 42.906 123.736L88.146 149.866C89.966 150.906 92.241 150.906 94.126 149.866L139.366 123.736C141.186 122.696 142.356 120.681 142.356 118.601V66.4063C142.356 64.2613 141.186 62.3113 139.366 61.2713L94.126 35.1413C92.306 34.1013 90.031 34.1013 88.146 35.1413L42.906 61.2713C41.086 62.3113 39.916 64.3263 39.916 66.4063Z" fill="url(#paint1_linear_3317_254)" stroke="#FEEFD9" stroke-width="1.3" stroke-miterlimit="10"/>
<path d="M49.9258 72.3867V112.622C49.9258 114.767 51.0958 116.717 52.9158 117.757L87.7558 137.842C89.5758 138.882 91.8508 138.882 93.7358 137.842L128.576 117.757C130.396 116.717 131.566 114.702 131.566 112.622V72.3867C131.566 70.2417 130.396 68.2917 128.576 67.2517L93.7358 47.1667C91.9158 46.1267 89.6408 46.1267 87.7558 47.1667L52.9158 67.2517C51.0958 68.2917 49.9258 70.3067 49.9258 72.3867Z" fill="url(#paint2_linear_3317_254)"/>
<path d="M50.25 72.3853V112.62C50.25 114.765 51.42 116.715 53.24 117.755L88.08 137.905C89.9 138.945 92.175 138.945 94.06 137.905L128.9 117.755C130.72 116.715 131.89 114.7 131.89 112.62V72.3853C131.89 70.2403 130.72 68.2903 128.9 67.2503L94.06 47.1003C92.24 46.0603 89.965 46.0603 88.08 47.1003L53.24 67.2503C51.42 68.2903 50.25 70.3053 50.25 72.3853Z" stroke="#FEEFD9" stroke-width="0.325" stroke-miterlimit="10"/>
<path opacity="0.5" d="M66.8906 89.0254H78.9806L88.0156 116.65L66.8906 89.0254Z" fill="white"/>
<path opacity="0.5" d="M115.186 89.0254H103.096L94.0605 116.65L115.186 89.0254Z" fill="white"/>
<path opacity="0.5" d="M91.0701 117.95L82.0352 89.0254H100.17L91.1352 117.95H91.0701Z" fill="white"/>
<path opacity="0.5" d="M78.9806 85.7763H66.8906L72.9357 76.1562L78.9806 85.7763Z" fill="white"/>
<path opacity="0.5" d="M115.186 85.7763H103.096L109.141 76.1562L115.186 85.7763Z" fill="white"/>
<path opacity="0.5" d="M97.1154 85.7763H85.0254L91.0704 76.1562L97.1154 85.7763Z" fill="white"/>
<path opacity="0.5" d="M76.9648 76.1562H88.0148L81.9699 85.7763L76.9648 76.1562Z" fill="white"/>
<path opacity="0.5" d="M94.0605 76.1562H106.151L100.106 85.7763L94.0605 76.1562Z" fill="white"/>
</g>
<defs>
<linearGradient id="paint0_linear_3317_254" x1="91.07" y1="260.302" x2="91.07" y2="260.302" gradientUnits="userSpaceOnUse">
<stop stop-color="#B49FEC"/>
<stop offset="1" stop-color="#60508A"/>
</linearGradient>
<linearGradient id="paint1_linear_3317_254" x1="91.071" y1="260.301" x2="91.071" y2="260.301" gradientUnits="userSpaceOnUse">
<stop stop-color="#B49FEC"/>
<stop offset="1" stop-color="#60508A"/>
</linearGradient>
<linearGradient id="paint2_linear_3317_254" x1="90.7458" y1="46.3217" x2="90.7458" y2="138.687" gradientUnits="userSpaceOnUse">
<stop stop-color="#B49FEC"/>
<stop offset="1" stop-color="#60508A"/>
</linearGradient>
</defs>
</svg>
