<svg width="181" height="246" viewBox="0 0 181 246" fill="none" xmlns="http://www.w3.org/2000/svg">
<mask id="mask0_3317_253" style="mask-type:alpha" maskUnits="userSpaceOnUse" x="0" y="0" width="181" height="246">
<rect width="181" height="246" fill="#D9D9D9"/>
</mask>
<g mask="url(#mask0_3317_253)">
<path d="M57.8757 238.176C56.849 238.176 55.949 237.996 55.1757 237.636C54.4024 237.276 53.7957 236.762 53.3557 236.096C52.929 235.429 52.709 234.636 52.6957 233.716H54.9357C54.949 234.462 55.209 235.096 55.7157 235.616C56.2224 236.136 56.9357 236.396 57.8557 236.396C58.669 236.396 59.3024 236.202 59.7557 235.816C60.2224 235.416 60.4557 234.909 60.4557 234.296C60.4557 233.802 60.3424 233.402 60.1157 233.096C59.9024 232.789 59.6024 232.536 59.2157 232.336C58.8424 232.136 58.409 231.956 57.9157 231.796C57.4224 231.636 56.9024 231.462 56.3557 231.276C55.2757 230.916 54.4624 230.449 53.9157 229.876C53.3824 229.302 53.1157 228.549 53.1157 227.616C53.1024 226.829 53.2824 226.142 53.6557 225.556C54.0424 224.969 54.5757 224.516 55.2557 224.196C55.949 223.862 56.7557 223.696 57.6757 223.696C58.5824 223.696 59.3757 223.862 60.0557 224.196C60.749 224.529 61.289 224.996 61.6757 225.596C62.0624 226.182 62.2624 226.869 62.2757 227.656H60.0357C60.0357 227.296 59.9424 226.956 59.7557 226.636C59.569 226.302 59.2957 226.029 58.9357 225.816C58.5757 225.602 58.1357 225.496 57.6157 225.496C56.949 225.482 56.3957 225.649 55.9557 225.996C55.529 226.342 55.3157 226.822 55.3157 227.436C55.3157 227.982 55.4757 228.402 55.7957 228.696C56.1157 228.989 56.5557 229.236 57.1157 229.436C57.6757 229.622 58.3157 229.842 59.0357 230.096C59.729 230.322 60.349 230.596 60.8957 230.916C61.4424 231.236 61.8757 231.656 62.1957 232.176C62.529 232.696 62.6957 233.356 62.6957 234.156C62.6957 234.862 62.5157 235.522 62.1557 236.136C61.7957 236.736 61.2557 237.229 60.5357 237.616C59.8157 237.989 58.929 238.176 57.8757 238.176ZM69.5735 238.176C68.6002 238.176 67.7335 237.962 66.9735 237.536C66.2268 237.096 65.6402 236.489 65.2135 235.716C64.7868 234.942 64.5735 234.042 64.5735 233.016C64.5735 231.976 64.7802 231.062 65.1935 230.276C65.6202 229.489 66.2068 228.876 66.9535 228.436C67.7135 227.996 68.5935 227.776 69.5935 227.776C70.5668 227.776 71.4135 227.996 72.1335 228.436C72.8535 228.862 73.4135 229.436 73.8135 230.156C74.2135 230.876 74.4135 231.669 74.4135 232.536C74.4135 232.669 74.4068 232.816 74.3935 232.976C74.3935 233.122 74.3868 233.289 74.3735 233.476H66.6535C66.7202 234.436 67.0335 235.169 67.5935 235.676C68.1668 236.169 68.8268 236.416 69.5735 236.416C70.1735 236.416 70.6735 236.282 71.0735 236.016C71.4868 235.736 71.7935 235.362 71.9935 234.896H74.1135C73.8468 235.829 73.3135 236.609 72.5135 237.236C71.7268 237.862 70.7468 238.176 69.5735 238.176ZM69.5735 229.516C68.8668 229.516 68.2402 229.729 67.6935 230.156C67.1468 230.569 66.8135 231.196 66.6935 232.036H72.2935C72.2535 231.262 71.9802 230.649 71.4735 230.196C70.9668 229.742 70.3335 229.516 69.5735 229.516ZM76.6132 237.936V228.016H78.4932L78.6532 229.756C78.9599 229.142 79.4065 228.662 79.9932 228.316C80.5932 227.956 81.2799 227.776 82.0532 227.776C83.2532 227.776 84.1932 228.149 84.8732 228.896C85.5665 229.642 85.9132 230.756 85.9132 232.236V237.936H83.8132V232.456C83.8132 230.536 83.0265 229.576 81.4532 229.576C80.6665 229.576 80.0132 229.856 79.4932 230.416C78.9865 230.976 78.7332 231.776 78.7332 232.816V237.936H76.6132ZM92.5701 237.936C91.5967 237.936 90.8234 237.702 90.2501 237.236C89.6767 236.756 89.3901 235.909 89.3901 234.696V229.796H87.6901V228.016H89.3901L89.6501 225.496H91.5101V228.016H94.3101V229.796H91.5101V234.696C91.5101 235.242 91.6234 235.622 91.8501 235.836C92.0901 236.036 92.4967 236.136 93.0701 236.136H94.2101V237.936H92.5701ZM97.696 226.136C97.296 226.136 96.9627 226.016 96.696 225.776C96.4427 225.522 96.316 225.209 96.316 224.836C96.316 224.462 96.4427 224.156 96.696 223.916C96.9627 223.662 97.296 223.536 97.696 223.536C98.096 223.536 98.4227 223.662 98.676 223.916C98.9427 224.156 99.076 224.462 99.076 224.836C99.076 225.209 98.9427 225.522 98.676 225.776C98.4227 226.016 98.096 226.136 97.696 226.136ZM96.636 237.936V228.016H98.756V237.936H96.636ZM101.555 237.936V228.016H103.435L103.595 229.756C103.901 229.142 104.348 228.662 104.935 228.316C105.535 227.956 106.221 227.776 106.995 227.776C108.195 227.776 109.135 228.149 109.815 228.896C110.508 229.642 110.855 230.756 110.855 232.236V237.936H108.755V232.456C108.755 230.536 107.968 229.576 106.395 229.576C105.608 229.576 104.955 229.856 104.435 230.416C103.928 230.976 103.675 231.776 103.675 232.816V237.936H101.555ZM117.991 238.176C117.018 238.176 116.151 237.962 115.391 237.536C114.645 237.096 114.058 236.489 113.631 235.716C113.205 234.942 112.991 234.042 112.991 233.016C112.991 231.976 113.198 231.062 113.611 230.276C114.038 229.489 114.625 228.876 115.371 228.436C116.131 227.996 117.011 227.776 118.011 227.776C118.985 227.776 119.831 227.996 120.551 228.436C121.271 228.862 121.831 229.436 122.231 230.156C122.631 230.876 122.831 231.669 122.831 232.536C122.831 232.669 122.825 232.816 122.811 232.976C122.811 233.122 122.805 233.289 122.791 233.476H115.071C115.138 234.436 115.451 235.169 116.011 235.676C116.585 236.169 117.245 236.416 117.991 236.416C118.591 236.416 119.091 236.282 119.491 236.016C119.905 235.736 120.211 235.362 120.411 234.896H122.531C122.265 235.829 121.731 236.609 120.931 237.236C120.145 237.862 119.165 238.176 117.991 238.176ZM117.991 229.516C117.285 229.516 116.658 229.729 116.111 230.156C115.565 230.569 115.231 231.196 115.111 232.036H120.711C120.671 231.262 120.398 230.649 119.891 230.196C119.385 229.742 118.751 229.516 117.991 229.516ZM125.031 237.936V223.536H127.151V237.936H125.031Z" fill="#FFFAF2"/>
<path d="M71.9143 210.216C70.6663 210.216 69.5863 209.946 68.6743 209.406C67.7743 208.854 67.0783 208.092 66.5863 207.12C66.0943 206.136 65.8483 205.002 65.8483 203.718C65.8483 202.422 66.0943 201.288 66.5863 200.316C67.0783 199.332 67.7743 198.564 68.6743 198.012C69.5863 197.46 70.6663 197.184 71.9143 197.184C73.3903 197.184 74.5963 197.544 75.5323 198.264C76.4683 198.984 77.0623 199.992 77.3143 201.288H75.1903C75.0223 200.556 74.6623 199.974 74.1103 199.542C73.5583 199.11 72.8203 198.894 71.8963 198.894C70.6363 198.894 69.6403 199.326 68.9083 200.19C68.1763 201.042 67.8103 202.218 67.8103 203.718C67.8103 205.206 68.1763 206.376 68.9083 207.228C69.6403 208.08 70.6363 208.506 71.8963 208.506C72.8203 208.506 73.5583 208.302 74.1103 207.894C74.6623 207.486 75.0223 206.928 75.1903 206.22H77.3143C77.0623 207.468 76.4683 208.446 75.5323 209.154C74.5963 209.862 73.3903 210.216 71.9143 210.216ZM80.3835 213.96L82.5255 209.262H82.0035L78.4755 201.072H80.5455L83.2815 207.678L86.1435 201.072H88.1595L82.3995 213.96H80.3835ZM94.7502 210.216C94.0542 210.216 93.4362 210.078 92.8962 209.802C92.3682 209.526 91.9482 209.136 91.6362 208.632L91.4382 210H89.7282V197.04H91.6362V202.458C91.9242 202.038 92.3202 201.666 92.8242 201.342C93.3282 201.018 93.9762 200.856 94.7682 200.856C95.6322 200.856 96.3942 201.06 97.0542 201.468C97.7142 201.876 98.2302 202.434 98.6022 203.142C98.9862 203.85 99.1782 204.654 99.1782 205.554C99.1782 206.454 98.9862 207.258 98.6022 207.966C98.2302 208.662 97.7142 209.214 97.0542 209.622C96.3942 210.018 95.6262 210.216 94.7502 210.216ZM94.4262 208.56C95.2422 208.56 95.9142 208.284 96.4422 207.732C96.9702 207.168 97.2342 206.436 97.2342 205.536C97.2342 204.948 97.1142 204.426 96.8742 203.97C96.6342 203.514 96.3042 203.16 95.8842 202.908C95.4642 202.644 94.9782 202.512 94.4262 202.512C93.6102 202.512 92.9382 202.794 92.4102 203.358C91.8942 203.922 91.6362 204.648 91.6362 205.536C91.6362 206.436 91.8942 207.168 92.4102 207.732C92.9382 208.284 93.6102 208.56 94.4262 208.56ZM105.418 210.216C104.542 210.216 103.762 210.024 103.078 209.64C102.406 209.244 101.878 208.698 101.494 208.002C101.11 207.306 100.918 206.496 100.918 205.572C100.918 204.636 101.104 203.814 101.476 203.106C101.86 202.398 102.388 201.846 103.06 201.45C103.744 201.054 104.536 200.856 105.436 200.856C106.312 200.856 107.074 201.054 107.722 201.45C108.37 201.834 108.874 202.35 109.234 202.998C109.594 203.646 109.774 204.36 109.774 205.14C109.774 205.26 109.768 205.392 109.756 205.536C109.756 205.668 109.75 205.818 109.738 205.986H102.79C102.85 206.85 103.132 207.51 103.636 207.966C104.152 208.41 104.746 208.632 105.418 208.632C105.958 208.632 106.408 208.512 106.768 208.272C107.14 208.02 107.416 207.684 107.596 207.264H109.504C109.264 208.104 108.784 208.806 108.064 209.37C107.356 209.934 106.474 210.216 105.418 210.216ZM105.418 202.422C104.782 202.422 104.218 202.614 103.726 202.998C103.234 203.37 102.934 203.934 102.826 204.69H107.866C107.83 203.994 107.584 203.442 107.128 203.034C106.672 202.626 106.102 202.422 105.418 202.422ZM111.754 210V201.072H113.464L113.626 202.764C113.938 202.176 114.37 201.714 114.922 201.378C115.486 201.03 116.164 200.856 116.956 200.856V202.854H116.434C115.906 202.854 115.432 202.944 115.012 203.124C114.604 203.292 114.274 203.586 114.022 204.006C113.782 204.414 113.662 204.984 113.662 205.716V210H111.754Z" fill="#FFFAF2" fill-opacity="0.65"/>
<path opacity="0.5" d="M39.629 74.8692L18.7639 65.5742C18.7639 65.5742 14.5389 74.0242 22.5339 77.5342C30.5289 81.0442 32.349 81.4992 31.829 87.1542C28.579 85.6592 21.9489 82.4092 21.9489 82.4092C21.9489 82.4092 19.6739 89.8842 25.5239 92.5492C31.3739 95.2142 34.624 96.2542 33.454 102.234C30.464 100.414 26.3689 97.4242 26.3689 97.4242C26.3689 97.4242 24.4189 104.639 29.4889 108.214C29.4889 108.214 32.0889 109.774 32.7389 110.944C33.4539 112.114 35.079 115.624 39.629 115.429V74.8692Z" fill="white"/>
<path opacity="0.5" d="M141.875 74.8692L162.74 65.5742C162.74 65.5742 166.965 74.0242 158.97 77.5342C150.975 81.0442 149.155 81.4992 149.675 87.1542C152.925 85.6592 159.555 82.4092 159.555 82.4092C159.555 82.4092 161.83 89.8842 155.98 92.5492C150.13 95.2142 146.88 96.2542 148.115 102.234C151.105 100.414 155.2 97.4242 155.2 97.4242C155.2 97.4242 157.15 104.639 152.08 108.214C152.08 108.214 149.48 109.774 148.83 110.944C148.115 112.114 146.49 115.624 141.875 115.429V74.8692Z" fill="white"/>
<path d="M39.3047 73.5045V125.7C39.3047 127.845 40.4747 129.795 42.2947 130.835L87.7297 156.965C89.5497 158.005 91.8247 158.005 93.6447 156.965L139.08 130.835C140.9 129.795 142.07 127.78 142.07 125.7V73.5045C142.07 71.3595 140.9 69.4095 139.08 68.3045L93.6447 42.1745C91.8247 41.1345 89.5497 41.1345 87.7297 42.1745L42.2947 68.3045C40.4747 69.3445 39.3047 71.3595 39.3047 73.5045Z" fill="url(#paint0_linear_3317_253)" stroke="#FEEFD9" stroke-width="0.52" stroke-miterlimit="10"/>
<path d="M39.5645 64.4044V116.599C39.5645 118.744 40.7345 120.694 42.5545 121.734L87.7944 147.864C89.6144 148.904 91.8894 148.904 93.7744 147.864L139.014 121.734C140.834 120.694 142.004 118.679 142.004 116.599V64.4044C142.004 62.2594 140.834 60.3094 139.014 59.2694L93.7744 33.1394C91.9544 32.0994 89.6794 32.0994 87.7944 33.1394L42.5545 59.2694C40.7345 60.3094 39.5645 62.3244 39.5645 64.4044Z" fill="url(#paint1_linear_3317_253)" stroke="#FEEFD9" stroke-width="1.3" stroke-miterlimit="10"/>
<path d="M49.8984 70.3848V110.62C49.8984 112.765 51.0684 114.715 52.8884 115.755L87.7284 135.84C89.5484 136.88 91.8235 136.88 93.7085 135.84L128.548 115.755C130.368 114.715 131.538 112.7 131.538 110.62V70.3848C131.538 68.2398 130.368 66.2898 128.548 65.2498L93.7085 45.1648C91.8885 44.1248 89.6134 44.1248 87.7284 45.1648L52.8884 65.2498C51.0684 66.2898 49.8984 68.3048 49.8984 70.3848Z" fill="url(#paint2_linear_3317_253)"/>
<path d="M49.8984 70.3853V110.62C49.8984 112.765 51.0684 114.715 52.8884 115.755L87.7284 135.905C89.5484 136.945 91.8235 136.945 93.7085 135.905L128.548 115.755C130.368 114.715 131.538 112.7 131.538 110.62V70.3853C131.538 68.2403 130.368 66.2903 128.548 65.2503L93.7085 45.1003C91.8885 44.0603 89.6134 44.0603 87.7284 45.1003L52.8884 65.2503C51.0684 66.2903 49.8984 68.3053 49.8984 70.3853Z" stroke="#FEEFD9" stroke-width="0.325" stroke-miterlimit="10"/>
<g opacity="0.5">
<path d="M66.5391 87.0234H78.6291L87.664 114.648L66.5391 87.0234Z" fill="white"/>
<path d="M114.898 87.0234H102.808L93.7734 114.648L114.898 87.0234Z" fill="white"/>
<path d="M90.7186 115.948L81.6836 87.0234H99.8186L90.7836 115.948H90.7186Z" fill="white"/>
<path d="M78.6291 83.7743H66.5391L72.5841 74.1543L78.6291 83.7743Z" fill="white"/>
<path d="M114.899 83.7743H102.809L108.854 74.1543L114.899 83.7743Z" fill="white"/>
<path d="M96.7638 83.7743H84.6738L90.7188 74.1543L96.7638 83.7743Z" fill="white"/>
<path d="M76.6133 74.1543H87.6633L81.6183 83.7743L76.6133 74.1543Z" fill="white"/>
<path d="M93.709 74.1543H105.799L99.754 83.7743L93.709 74.1543Z" fill="white"/>
</g>
</g>
<defs>
<linearGradient id="paint0_linear_3317_253" x1="90.7197" y1="41.3945" x2="90.7197" y2="157.745" gradientUnits="userSpaceOnUse">
<stop stop-color="#B49FEC"/>
<stop offset="1" stop-color="#60508A"/>
</linearGradient>
<linearGradient id="paint1_linear_3317_253" x1="90.7195" y1="148.644" x2="90.7195" y2="32.2944" gradientUnits="userSpaceOnUse">
<stop stop-color="#B49FEC"/>
<stop offset="1" stop-color="#60508A"/>
</linearGradient>
<linearGradient id="paint2_linear_3317_253" x1="90.7184" y1="44.3198" x2="90.7184" y2="136.685" gradientUnits="userSpaceOnUse">
<stop stop-color="#B49FEC"/>
<stop offset="1" stop-color="#60508A"/>
</linearGradient>
</defs>
</svg>
