<svg width="181" height="246" viewBox="0 0 181 246" fill="none" xmlns="http://www.w3.org/2000/svg">
<mask id="mask0_3317_255" style="mask-type:alpha" maskUnits="userSpaceOnUse" x="0" y="0" width="181" height="246">
<rect width="181" height="246" fill="#D9D9D9"/>
</mask>
<g mask="url(#mask0_3317_255)">
<path d="M49.9198 240.176C48.5331 240.176 47.3331 239.876 46.3198 239.276C45.3198 238.662 44.5464 237.816 43.9998 236.736C43.4531 235.642 43.1798 234.382 43.1798 232.956C43.1798 231.516 43.4531 230.256 43.9998 229.176C44.5464 228.082 45.3198 227.229 46.3198 226.616C47.3331 226.002 48.5331 225.696 49.9198 225.696C51.5598 225.696 52.8998 226.096 53.9398 226.896C54.9798 227.696 55.6398 228.816 55.9198 230.256H53.5598C53.3731 229.442 52.9731 228.796 52.3598 228.316C51.7464 227.836 50.9264 227.596 49.8998 227.596C48.4998 227.596 47.3931 228.076 46.5798 229.036C45.7664 229.982 45.3598 231.289 45.3598 232.956C45.3598 234.609 45.7664 235.909 46.5798 236.856C47.3931 237.802 48.4998 238.276 49.8998 238.276C50.9264 238.276 51.7464 238.049 52.3598 237.596C52.9731 237.142 53.3731 236.522 53.5598 235.736H55.9198C55.6398 237.122 54.9798 238.209 53.9398 238.996C52.8998 239.782 51.5598 240.176 49.9198 240.176ZM58.1701 239.936V225.536H60.2901V231.616C60.6234 231.042 61.0834 230.596 61.6701 230.276C62.2701 229.942 62.9301 229.776 63.6501 229.776C64.8367 229.776 65.7701 230.149 66.4501 230.896C67.1301 231.642 67.4701 232.756 67.4701 234.236V239.936H65.3701V234.456C65.3701 232.536 64.6034 231.576 63.0701 231.576C62.2701 231.576 61.6034 231.856 61.0701 232.416C60.5501 232.976 60.2901 233.776 60.2901 234.816V239.936H58.1701ZM73.327 240.176C72.487 240.176 71.7936 240.036 71.247 239.756C70.7003 239.476 70.2936 239.109 70.027 238.656C69.7603 238.189 69.627 237.682 69.627 237.136C69.627 236.176 70.0003 235.416 70.747 234.856C71.4936 234.296 72.5603 234.016 73.947 234.016H76.547V233.836C76.547 233.062 76.3336 232.482 75.907 232.096C75.4936 231.709 74.9536 231.516 74.287 231.516C73.7003 231.516 73.187 231.662 72.747 231.956C72.3203 232.236 72.0603 232.656 71.967 233.216H69.847C69.9136 232.496 70.1536 231.882 70.567 231.376C70.9936 230.856 71.527 230.462 72.167 230.196C72.8203 229.916 73.5336 229.776 74.307 229.776C75.6936 229.776 76.767 230.142 77.527 230.876C78.287 231.596 78.667 232.582 78.667 233.836V239.936H76.827L76.647 238.236C76.367 238.782 75.9603 239.242 75.427 239.616C74.8936 239.989 74.1936 240.176 73.327 240.176ZM73.747 238.456C74.3203 238.456 74.8003 238.322 75.187 238.056C75.587 237.776 75.8936 237.409 76.107 236.956C76.3336 236.502 76.4736 236.002 76.527 235.456H74.167C73.327 235.456 72.727 235.602 72.367 235.896C72.0203 236.189 71.847 236.556 71.847 236.996C71.847 237.449 72.0136 237.809 72.347 238.076C72.6936 238.329 73.1603 238.456 73.747 238.456ZM81.1388 239.936V230.016H83.0188L83.1988 231.416C83.5188 230.909 83.9388 230.509 84.4588 230.216C84.9922 229.922 85.6055 229.776 86.2988 229.776C87.8722 229.776 88.9655 230.396 89.5788 231.636C89.9388 231.062 90.4188 230.609 91.0188 230.276C91.6322 229.942 92.2922 229.776 92.9988 229.776C94.2388 229.776 95.2122 230.149 95.9188 230.896C96.6255 231.642 96.9788 232.756 96.9788 234.236V239.936H94.8588V234.456C94.8588 232.536 94.1255 231.576 92.6588 231.576C91.9122 231.576 91.2988 231.856 90.8188 232.416C90.3522 232.976 90.1188 233.776 90.1188 234.816V239.936H87.9988V234.456C87.9988 232.536 87.2588 231.576 85.7788 231.576C85.0455 231.576 84.4388 231.856 83.9588 232.416C83.4922 232.976 83.2588 233.776 83.2588 234.816V239.936H81.1388ZM99.4591 244.336V230.016H101.359L101.579 231.556C101.899 231.089 102.339 230.676 102.899 230.316C103.459 229.956 104.179 229.776 105.059 229.776C106.019 229.776 106.866 230.002 107.599 230.456C108.332 230.909 108.906 231.529 109.319 232.316C109.746 233.102 109.959 233.996 109.959 234.996C109.959 235.996 109.746 236.889 109.319 237.676C108.906 238.449 108.332 239.062 107.599 239.516C106.866 239.956 106.012 240.176 105.039 240.176C104.266 240.176 103.579 240.022 102.979 239.716C102.392 239.409 101.926 238.976 101.579 238.416V244.336H99.4591ZM104.679 238.336C105.586 238.336 106.332 238.029 106.919 237.416C107.506 236.789 107.799 235.976 107.799 234.976C107.799 234.322 107.666 233.742 107.399 233.236C107.132 232.729 106.766 232.336 106.299 232.056C105.832 231.762 105.292 231.616 104.679 231.616C103.772 231.616 103.026 231.929 102.439 232.556C101.866 233.182 101.579 233.989 101.579 234.976C101.579 235.976 101.866 236.789 102.439 237.416C103.026 238.029 103.772 238.336 104.679 238.336ZM113.452 228.136C113.052 228.136 112.719 228.016 112.452 227.776C112.199 227.522 112.072 227.209 112.072 226.836C112.072 226.462 112.199 226.156 112.452 225.916C112.719 225.662 113.052 225.536 113.452 225.536C113.852 225.536 114.179 225.662 114.432 225.916C114.699 226.156 114.832 226.462 114.832 226.836C114.832 227.209 114.699 227.522 114.432 227.776C114.179 228.016 113.852 228.136 113.452 228.136ZM112.392 239.936V230.016H114.512V239.936H112.392ZM121.951 240.176C121.004 240.176 120.151 239.962 119.391 239.536C118.644 239.096 118.051 238.489 117.611 237.716C117.171 236.929 116.951 236.016 116.951 234.976C116.951 233.936 117.171 233.029 117.611 232.256C118.064 231.469 118.671 230.862 119.431 230.436C120.191 229.996 121.037 229.776 121.971 229.776C122.917 229.776 123.764 229.996 124.511 230.436C125.271 230.862 125.871 231.469 126.311 232.256C126.764 233.029 126.991 233.936 126.991 234.976C126.991 236.016 126.764 236.929 126.311 237.716C125.871 238.489 125.271 239.096 124.511 239.536C123.751 239.962 122.897 240.176 121.951 240.176ZM121.951 238.356C122.457 238.356 122.924 238.229 123.351 237.976C123.791 237.722 124.144 237.349 124.411 236.856C124.677 236.349 124.811 235.722 124.811 234.976C124.811 234.229 124.677 233.609 124.411 233.116C124.157 232.609 123.811 232.229 123.371 231.976C122.944 231.722 122.477 231.596 121.971 231.596C121.464 231.596 120.991 231.722 120.551 231.976C120.124 232.229 119.777 232.609 119.511 233.116C119.244 233.609 119.111 234.229 119.111 234.976C119.111 235.722 119.244 236.349 119.511 236.856C119.777 237.349 120.124 237.722 120.551 237.976C120.977 238.229 121.444 238.356 121.951 238.356ZM129.283 239.936V230.016H131.163L131.323 231.756C131.63 231.142 132.077 230.662 132.663 230.316C133.263 229.956 133.95 229.776 134.723 229.776C135.923 229.776 136.863 230.149 137.543 230.896C138.237 231.642 138.583 232.756 138.583 234.236V239.936H136.483V234.456C136.483 232.536 135.697 231.576 134.123 231.576C133.337 231.576 132.683 231.856 132.163 232.416C131.657 232.976 131.403 233.776 131.403 234.816V239.936H129.283Z" fill="#FFFAF2"/>
<path d="M73.1018 212.216C71.8538 212.216 70.7738 211.946 69.8618 211.406C68.9618 210.854 68.2658 210.092 67.7738 209.12C67.2818 208.136 67.0358 207.002 67.0358 205.718C67.0358 204.422 67.2818 203.288 67.7738 202.316C68.2658 201.332 68.9618 200.564 69.8618 200.012C70.7738 199.46 71.8538 199.184 73.1018 199.184C74.5778 199.184 75.7838 199.544 76.7198 200.264C77.6558 200.984 78.2498 201.992 78.5018 203.288H76.3778C76.2098 202.556 75.8498 201.974 75.2978 201.542C74.7458 201.11 74.0078 200.894 73.0838 200.894C71.8238 200.894 70.8278 201.326 70.0958 202.19C69.3638 203.042 68.9978 204.218 68.9978 205.718C68.9978 207.206 69.3638 208.376 70.0958 209.228C70.8278 210.08 71.8238 210.506 73.0838 210.506C74.0078 210.506 74.7458 210.302 75.2978 209.894C75.8498 209.486 76.2098 208.928 76.3778 208.22H78.5018C78.2498 209.468 77.6558 210.446 76.7198 211.154C75.7838 211.862 74.5778 212.216 73.1018 212.216ZM81.571 215.96L83.713 211.262H83.191L79.663 203.072H81.733L84.469 209.678L87.331 203.072H89.347L83.587 215.96H81.571ZM95.9377 212.216C95.2417 212.216 94.6237 212.078 94.0837 211.802C93.5557 211.526 93.1357 211.136 92.8237 210.632L92.6257 212H90.9157V199.04H92.8237V204.458C93.1117 204.038 93.5077 203.666 94.0117 203.342C94.5157 203.018 95.1637 202.856 95.9557 202.856C96.8197 202.856 97.5817 203.06 98.2417 203.468C98.9017 203.876 99.4177 204.434 99.7897 205.142C100.174 205.85 100.366 206.654 100.366 207.554C100.366 208.454 100.174 209.258 99.7897 209.966C99.4177 210.662 98.9017 211.214 98.2417 211.622C97.5817 212.018 96.8137 212.216 95.9377 212.216ZM95.6137 210.56C96.4297 210.56 97.1017 210.284 97.6297 209.732C98.1577 209.168 98.4217 208.436 98.4217 207.536C98.4217 206.948 98.3017 206.426 98.0617 205.97C97.8217 205.514 97.4917 205.16 97.0717 204.908C96.6517 204.644 96.1657 204.512 95.6137 204.512C94.7977 204.512 94.1257 204.794 93.5977 205.358C93.0817 205.922 92.8237 206.648 92.8237 207.536C92.8237 208.436 93.0817 209.168 93.5977 209.732C94.1257 210.284 94.7977 210.56 95.6137 210.56ZM106.605 212.216C105.729 212.216 104.949 212.024 104.265 211.64C103.593 211.244 103.065 210.698 102.681 210.002C102.297 209.306 102.105 208.496 102.105 207.572C102.105 206.636 102.291 205.814 102.663 205.106C103.047 204.398 103.575 203.846 104.247 203.45C104.931 203.054 105.723 202.856 106.623 202.856C107.499 202.856 108.261 203.054 108.909 203.45C109.557 203.834 110.061 204.35 110.421 204.998C110.781 205.646 110.961 206.36 110.961 207.14C110.961 207.26 110.955 207.392 110.943 207.536C110.943 207.668 110.937 207.818 110.925 207.986H103.977C104.037 208.85 104.319 209.51 104.823 209.966C105.339 210.41 105.933 210.632 106.605 210.632C107.145 210.632 107.595 210.512 107.955 210.272C108.327 210.02 108.603 209.684 108.783 209.264H110.691C110.451 210.104 109.971 210.806 109.251 211.37C108.543 211.934 107.661 212.216 106.605 212.216ZM106.605 204.422C105.969 204.422 105.405 204.614 104.913 204.998C104.421 205.37 104.121 205.934 104.013 206.69H109.053C109.017 205.994 108.771 205.442 108.315 205.034C107.859 204.626 107.289 204.422 106.605 204.422ZM112.941 212V203.072H114.651L114.813 204.764C115.125 204.176 115.557 203.714 116.109 203.378C116.673 203.03 117.351 202.856 118.143 202.856V204.854H117.621C117.093 204.854 116.619 204.944 116.199 205.124C115.791 205.292 115.461 205.586 115.209 206.006C114.969 206.414 114.849 206.984 114.849 207.716V212H112.941Z" fill="#FFFAF2" fill-opacity="0.65"/>
<path opacity="0.5" d="M66.9551 38.0657L80.6051 27.4707V165.531L66.9551 156.041V38.1307V38.0657Z" fill="white"/>
<path opacity="0.5" d="M115.316 38.0657L101.666 27.4707V165.531L115.316 156.041V38.1307V38.0657Z" fill="white"/>
<path opacity="0.5" d="M39.9805 76.8712L19.1155 67.5762C19.1155 67.5762 14.8905 76.0262 22.8855 79.5362C30.8805 83.0462 32.7005 83.5012 32.1805 89.1562C28.9305 87.6612 22.3005 84.4112 22.3005 84.4112C22.3005 84.4112 20.0255 91.8862 25.8755 94.5512C31.7255 97.2162 34.9755 98.2562 33.8055 104.236C30.8155 102.416 26.7205 99.4262 26.7205 99.4262C26.7205 99.4262 24.7705 106.641 29.8405 110.216C29.8405 110.216 32.4405 111.776 33.0905 112.946C33.8055 114.116 35.4305 117.626 39.9805 117.431V76.8712Z" fill="white"/>
<path opacity="0.5" d="M142.291 76.8712L163.156 67.5762C163.156 67.5762 167.381 76.0262 159.386 79.5362C151.391 83.0462 149.571 83.5012 150.091 89.1562C153.341 87.6612 159.971 84.4112 159.971 84.4112C159.971 84.4112 162.246 91.8862 156.396 94.5512C150.546 97.2162 147.296 98.2562 148.531 104.236C151.521 102.416 155.616 99.4262 155.616 99.4262C155.616 99.4262 157.566 106.641 152.496 110.216C152.496 110.216 149.896 111.776 149.246 112.946C148.531 114.116 146.906 117.626 142.291 117.431V76.8712Z" fill="white"/>
<path d="M39.6562 75.5065V127.701C39.6562 129.846 40.8262 131.796 42.6462 132.836L88.0812 158.966C89.9012 160.006 92.1762 160.006 93.9962 158.966L139.431 132.836C141.251 131.796 142.421 129.781 142.421 127.701V75.5065C142.421 73.3615 141.251 71.4115 139.431 70.3065L93.9962 44.1765C92.1762 43.1365 89.9012 43.1365 88.0812 44.1765L42.6462 70.3065C40.8262 71.3465 39.6562 73.3615 39.6562 75.5065Z" fill="#7664A3" stroke="#FEEFD9" stroke-width="0.52" stroke-miterlimit="10"/>
<path d="M39.916 66.4063V118.601C39.916 120.746 41.086 122.696 42.906 123.736L88.146 149.866C89.966 150.906 92.241 150.906 94.126 149.866L139.366 123.736C141.186 122.696 142.356 120.681 142.356 118.601V66.4063C142.356 64.2613 141.186 62.3113 139.366 61.2713L94.126 35.1413C92.306 34.1013 90.031 34.1013 88.146 35.1413L42.906 61.2713C41.086 62.3113 39.916 64.3263 39.916 66.4063Z" fill="url(#paint0_linear_3317_255)" stroke="#FEEFD9" stroke-width="1.3" stroke-miterlimit="10"/>
<path d="M50.3164 72.3848V112.62C50.3164 114.765 51.4864 116.715 53.3064 117.755L88.1464 137.84C89.9664 138.88 92.2414 138.88 94.1264 137.84L128.966 117.755C130.786 116.715 131.956 114.7 131.956 112.62V72.3848C131.956 70.2398 130.786 68.2898 128.966 67.2498L94.1264 47.1648C92.3064 46.1248 90.0314 46.1248 88.1464 47.1648L53.3064 67.2498C51.4864 68.2898 50.3164 70.3048 50.3164 72.3848Z" fill="url(#paint1_linear_3317_255)"/>
<path d="M50.7051 72.4512V112.686C50.7051 114.831 51.8751 116.781 53.6951 117.821L88.5351 137.906C90.3551 138.946 92.6301 138.946 94.5151 137.906L129.355 117.821C131.175 116.781 132.345 114.766 132.345 112.686V72.4512C132.345 70.3062 131.175 68.3562 129.355 67.3162L94.5151 47.2312C92.6951 46.1912 90.4201 46.1912 88.5351 47.2312L53.6951 67.3162C51.8751 68.3562 50.7051 70.3712 50.7051 72.4512Z" fill="url(#paint2_linear_3317_255)"/>
<path d="M50.3164 72.3853V112.62C50.3164 114.765 51.4864 116.715 53.3064 117.755L88.1464 137.905C89.9664 138.945 92.2414 138.945 94.1264 137.905L128.966 117.755C130.786 116.715 131.956 114.7 131.956 112.62V72.3853C131.956 70.2403 130.786 68.2903 128.966 67.2503L94.1264 47.1003C92.3064 46.0603 90.0314 46.0603 88.1464 47.1003L53.3064 67.2503C51.4864 68.2903 50.3164 70.3053 50.3164 72.3853Z" stroke="#FEEFD9" stroke-width="0.325" stroke-miterlimit="10"/>
<g opacity="0.5">
<path d="M66.9551 89.0254H79.0451L88.0801 116.65L66.9551 89.0254Z" fill="white"/>
<path d="M115.25 89.0254H103.16L94.125 116.65L115.25 89.0254Z" fill="white"/>
<path d="M91.0702 117.95L82.0352 89.0254H100.17L91.1352 117.95H91.0702Z" fill="white"/>
<path d="M78.9806 85.7763H66.8906L72.9356 76.1562L78.9806 85.7763Z" fill="white"/>
<path d="M115.25 85.7763H103.16L109.205 76.1562L115.25 85.7763Z" fill="white"/>
<path d="M97.1154 85.7763H85.0254L91.0703 76.1562L97.1154 85.7763Z" fill="white"/>
<path d="M77.0312 76.1562H88.0813L82.0362 85.7763L77.0312 76.1562Z" fill="white"/>
<path d="M94.125 76.1562H106.215L100.17 85.7763L94.125 76.1562Z" fill="white"/>
</g>
</g>
<defs>
<linearGradient id="paint0_linear_3317_255" x1="91.071" y1="260.301" x2="91.071" y2="260.301" gradientUnits="userSpaceOnUse">
<stop stop-color="#B49FEC"/>
<stop offset="1" stop-color="#60508A"/>
</linearGradient>
<linearGradient id="paint1_linear_3317_255" x1="91.0714" y1="260.3" x2="91.0714" y2="260.3" gradientUnits="userSpaceOnUse">
<stop stop-color="#B49FEC"/>
<stop offset="1" stop-color="#60508A"/>
</linearGradient>
<linearGradient id="paint2_linear_3317_255" x1="91.5251" y1="46.3862" x2="91.5251" y2="138.751" gradientUnits="userSpaceOnUse">
<stop stop-color="#B49FEC"/>
<stop offset="1" stop-color="#60508A"/>
</linearGradient>
</defs>
</svg>
