<svg width="107" height="64" viewBox="0 0 107 64" fill="none" xmlns="http://www.w3.org/2000/svg">
<path d="M17.08 59.84C14.5973 59.84 12.3573 59.2613 10.36 58.104C8.38133 56.9467 6.81333 55.3787 5.656 53.4C4.49867 51.4027 3.92 49.1627 3.92 46.68L3.92 31C3.92 28.5173 4.49867 26.2867 5.656 24.308C6.81333 22.3107 8.38133 20.7333 10.36 19.576C12.3573 18.4187 14.5973 17.84 17.08 17.84C19.5627 17.84 21.7933 18.4187 23.772 19.576C25.7693 20.7333 27.3467 22.3107 28.504 24.308C29.6613 26.2867 30.24 28.5173 30.24 31L30.24 46.68C30.24 49.1627 29.6613 51.4027 28.504 53.4C27.3467 55.3787 25.7693 56.9467 23.772 58.104C21.7933 59.2613 19.5627 59.84 17.08 59.84ZM17.08 55.864C18.7413 55.864 20.2533 55.4627 21.616 54.66C22.9787 53.8387 24.0613 52.7467 24.864 51.384C25.6667 50.0213 26.068 48.5187 26.068 46.876L26.068 30.804C26.068 29.1427 25.6667 27.6307 24.864 26.268C24.0613 24.9053 22.9787 23.8227 21.616 23.02C20.2533 22.1987 18.7413 21.788 17.08 21.788C15.4187 21.788 13.9067 22.1987 12.544 23.02C11.1813 23.8227 10.0987 24.9053 9.296 26.268C8.49333 27.6307 8.092 29.1427 8.092 30.804L8.092 46.876C8.092 48.5187 8.49333 50.0213 9.296 51.384C10.0987 52.7467 11.1813 53.8387 12.544 54.66C13.9067 55.4627 15.4187 55.864 17.08 55.864ZM45.1277 59V23.272L37.5397 27.836V23.216L45.1277 18.68H49.2997L49.2997 59H45.1277Z" fill="white"/>
<path d="M82.032 47.48H83.24L80.168 59H78.96L82.032 47.48ZM92.2863 59.24C91.5769 59.24 90.9369 59.0747 90.3663 58.744C89.8009 58.4133 89.3529 57.9653 89.0223 57.4C88.6916 56.8293 88.5263 56.1893 88.5263 55.48V51C88.5263 50.2907 88.6916 49.6533 89.0223 49.088C89.3529 48.5173 89.8009 48.0667 90.3663 47.736C90.9369 47.4053 91.5769 47.24 92.2863 47.24C92.9956 47.24 93.6329 47.4053 94.1983 47.736C94.7689 48.0667 95.2196 48.5173 95.5503 49.088C95.8809 49.6533 96.0463 50.2907 96.0463 51V55.48C96.0463 56.1893 95.8809 56.8293 95.5503 57.4C95.2196 57.9653 94.7689 58.4133 94.1983 58.744C93.6329 59.0747 92.9956 59.24 92.2863 59.24ZM92.2863 58.104C92.7609 58.104 93.1929 57.9893 93.5823 57.76C93.9716 57.5253 94.2809 57.2133 94.5103 56.824C94.7396 56.4347 94.8543 56.0053 94.8543 55.536V50.944C94.8543 50.4693 94.7396 50.0373 94.5103 49.648C94.2809 49.2587 93.9716 48.9493 93.5823 48.72C93.1929 48.4853 92.7609 48.368 92.2863 48.368C91.8116 48.368 91.3796 48.4853 90.9903 48.72C90.6009 48.9493 90.2916 49.2587 90.0623 49.648C89.8329 50.0373 89.7183 50.4693 89.7183 50.944V55.536C89.7183 56.0053 89.8329 56.4347 90.0623 56.824C90.2916 57.2133 90.6009 57.5253 90.9903 57.76C91.3796 57.9893 91.8116 58.104 92.2863 58.104ZM101.388 59.232C100.817 59.232 100.292 59.1307 99.8119 58.928C99.3319 58.7253 98.9185 58.4373 98.5719 58.064C98.2252 57.6853 97.9719 57.2347 97.8119 56.712L98.9319 56.376C99.1239 56.9467 99.4385 57.3787 99.8759 57.672C100.319 57.9653 100.817 58.1067 101.372 58.096C101.884 58.0853 102.324 57.9707 102.692 57.752C103.065 57.5333 103.351 57.2293 103.548 56.84C103.745 56.4507 103.844 56 103.844 55.488C103.844 54.704 103.615 54.0747 103.156 53.6C102.703 53.12 102.103 52.88 101.356 52.88C101.148 52.88 100.929 52.9093 100.7 52.968C100.471 53.0213 100.257 53.0987 100.06 53.2L99.4679 52.264L103.948 48.128L104.14 48.608L98.2679 48.608V47.48L104.924 47.48V48.624L101.02 52.352L101.004 51.888C101.804 51.7867 102.508 51.8773 103.116 52.16C103.724 52.4427 104.199 52.8747 104.54 53.456C104.887 54.032 105.06 54.7093 105.06 55.488C105.06 56.224 104.9 56.8747 104.58 57.44C104.265 58 103.831 58.44 103.276 58.76C102.721 59.0747 102.092 59.232 101.388 59.232Z" fill="white"/>
</svg>
