<svg width="388" height="388" viewBox="0 0 388 388" fill="none" xmlns="http://www.w3.org/2000/svg">
<g style="mix-blend-mode:lighten">
<path fill-rule="evenodd" clip-rule="evenodd" d="M254.327 343.865C264.287 340.078 279.832 331.761 291.081 324.199C304.539 315.153 323.03 297.899 332.238 285.795C348.778 264.055 357.43 241.943 362.402 208.705C365.746 186.354 365.984 180.68 366.292 115.807C366.62 46.813 366.919 51.1437 361.452 45.6773C356.177 40.4016 359.298 40.6388 295.045 40.6388C232.987 40.6388 235.16 40.5121 230.033 44.4231C228.723 45.4214 226.834 47.6308 225.833 49.3324L224.014 52.4269L223.832 111.21L223.648 169.992L225.104 173.376C226.813 177.348 231.503 181.775 235.046 182.759C236.498 183.162 248.6 183.438 264.936 183.44L292.386 183.444L292.386 187.68C292.386 197.324 289.636 213.691 286.194 224.535C281.618 238.951 274.636 250.575 264.522 260.614C256.271 268.804 246.717 275.309 233.286 281.88C223.465 286.685 221.991 287.878 219.293 293.206C218.578 294.618 218.102 297.133 218.078 299.619C218.045 303.218 218.493 304.68 221.811 311.781C234.436 338.8 235.468 340.514 240.742 343.205C244.609 345.178 250.162 345.447 254.327 343.865ZM55.1318 344.358C58.865 343.669 76.4186 335.079 85.924 329.29C114.761 311.727 137.271 288.197 150.444 261.848C160.076 242.581 164.847 223.117 168.207 189.379C169.1 180.413 169.356 167.007 169.597 116.486C169.931 46.7349 170.232 51.1518 164.758 45.6773C159.483 40.4023 162.6 40.6387 98.3858 40.6387C35.7959 40.6387 37.9898 40.5026 32.9 44.6979C31.5649 45.7986 29.6876 48.2748 28.7277 50.2006L26.983 53.702L26.9978 112.005C27.0126 169.204 27.0389 170.366 28.3848 173.34C29.9617 176.825 32.3672 179.539 35.7399 181.639C38.043 183.074 38.7665 183.115 67.0534 183.444L96.0093 183.781L95.8038 189.17C95.2724 203.089 91.9124 219.654 87.2456 231.355C82.4475 243.388 76.7009 252.164 67.9803 260.778C60.0438 268.618 51.941 274.204 39.2218 280.603C27.0288 286.738 23.621 289.565 22.2408 294.69C20.6072 300.756 21.4675 303.812 29.507 320.524C33.994 329.851 37.9756 337.195 39.5115 338.976C43.413 343.5 49.1226 345.468 55.1318 344.358Z" fill="#9A90B5"/>
</g>
</svg>
